<mxfile host="65bd71144e">
    <diagram id="C5RBs43oDa-KdzZeNtuy" name="Page-1">
        <mxGraphModel dx="2614" dy="2316" grid="1" gridSize="10" guides="1" tooltips="1" connect="1" arrows="1" fold="1" page="1" pageScale="1" pageWidth="827" pageHeight="1169" math="0" shadow="0">
            <root>
                <mxCell id="WIyWlLk6GJQsqaUBKTNV-0"/>
                <mxCell id="WIyWlLk6GJQsqaUBKTNV-1" parent="WIyWlLk6GJQsqaUBKTNV-0"/>
                <mxCell id="gVJZ379J9d6tVCcwHyOa-42" style="edgeStyle=orthogonalEdgeStyle;rounded=0;orthogonalLoop=1;jettySize=auto;html=1;endArrow=classic;endFill=1;" parent="WIyWlLk6GJQsqaUBKTNV-1" source="gVJZ379J9d6tVCcwHyOa-0" target="gVJZ379J9d6tVCcwHyOa-40" edge="1">
                    <mxGeometry relative="1" as="geometry"/>
                </mxCell>
                <mxCell id="9TWkfeMFytIOEXwtAVvO-18" style="edgeStyle=orthogonalEdgeStyle;rounded=0;orthogonalLoop=1;jettySize=auto;html=1;endArrow=classic;endFill=1;" parent="WIyWlLk6GJQsqaUBKTNV-1" source="gVJZ379J9d6tVCcwHyOa-0" target="9TWkfeMFytIOEXwtAVvO-5" edge="1">
                    <mxGeometry relative="1" as="geometry"/>
                </mxCell>
                <mxCell id="43" style="edgeStyle=orthogonalEdgeStyle;rounded=0;html=1;" parent="WIyWlLk6GJQsqaUBKTNV-1" source="gVJZ379J9d6tVCcwHyOa-0" target="16" edge="1">
                    <mxGeometry relative="1" as="geometry"/>
                </mxCell>
                <mxCell id="gVJZ379J9d6tVCcwHyOa-0" value="VLAN" style="swimlane;fontStyle=1;align=center;verticalAlign=top;childLayout=stackLayout;horizontal=1;startSize=26;horizontalStack=0;resizeParent=1;resizeParentMax=0;resizeLast=0;collapsible=1;marginBottom=0;" parent="WIyWlLk6GJQsqaUBKTNV-1" vertex="1">
                    <mxGeometry x="710" y="586" width="230" height="190" as="geometry"/>
                </mxCell>
                <mxCell id="gVJZ379J9d6tVCcwHyOa-1" value="_id : str &amp; unique" style="text;strokeColor=none;fillColor=none;align=left;verticalAlign=top;spacingLeft=4;spacingRight=4;overflow=hidden;rotatable=0;points=[[0,0.5],[1,0.5]];portConstraint=eastwest;" parent="gVJZ379J9d6tVCcwHyOa-0" vertex="1">
                    <mxGeometry y="26" width="230" height="26" as="geometry"/>
                </mxCell>
                <mxCell id="gVJZ379J9d6tVCcwHyOa-4" value="number : int &amp; unique &amp; notnone" style="text;strokeColor=none;fillColor=none;align=left;verticalAlign=top;spacingLeft=4;spacingRight=4;overflow=hidden;rotatable=0;points=[[0,0.5],[1,0.5]];portConstraint=eastwest;" parent="gVJZ379J9d6tVCcwHyOa-0" vertex="1">
                    <mxGeometry y="52" width="230" height="26" as="geometry"/>
                </mxCell>
                <mxCell id="gVJZ379J9d6tVCcwHyOa-5" value="purpose : int &amp; notnone" style="text;strokeColor=none;fillColor=none;align=left;verticalAlign=top;spacingLeft=4;spacingRight=4;overflow=hidden;rotatable=0;points=[[0,0.5],[1,0.5]];portConstraint=eastwest;" parent="gVJZ379J9d6tVCcwHyOa-0" vertex="1">
                    <mxGeometry y="78" width="230" height="26" as="geometry"/>
                </mxCell>
                <mxCell id="gVJZ379J9d6tVCcwHyOa-6" value="desc : str &amp; notnone" style="text;strokeColor=none;fillColor=none;align=left;verticalAlign=top;spacingLeft=4;spacingRight=4;overflow=hidden;rotatable=0;points=[[0,0.5],[1,0.5]];portConstraint=eastwest;" parent="gVJZ379J9d6tVCcwHyOa-0" vertex="1">
                    <mxGeometry y="104" width="230" height="26" as="geometry"/>
                </mxCell>
                <mxCell id="gVJZ379J9d6tVCcwHyOa-2" value="" style="line;strokeWidth=1;fillColor=none;align=left;verticalAlign=middle;spacingTop=-1;spacingLeft=3;spacingRight=3;rotatable=0;labelPosition=right;points=[];portConstraint=eastwest;" parent="gVJZ379J9d6tVCcwHyOa-0" vertex="1">
                    <mxGeometry y="130" width="230" height="8" as="geometry"/>
                </mxCell>
                <mxCell id="ZMA68TP57f_UoP05x5sL-1" value="get_by_number(int) : VLAN | None" style="text;strokeColor=none;fillColor=none;align=left;verticalAlign=top;spacingLeft=4;spacingRight=4;overflow=hidden;rotatable=0;points=[[0,0.5],[1,0.5]];portConstraint=eastwest;" parent="gVJZ379J9d6tVCcwHyOa-0" vertex="1">
                    <mxGeometry y="138" width="230" height="26" as="geometry"/>
                </mxCell>
                <mxCell id="RKmNDyJnUAOdD5a3fBpU-1" value="get_by_purpose(int) : list[VLAN]" style="text;strokeColor=none;fillColor=none;align=left;verticalAlign=top;spacingLeft=4;spacingRight=4;overflow=hidden;rotatable=0;points=[[0,0.5],[1,0.5]];portConstraint=eastwest;" parent="gVJZ379J9d6tVCcwHyOa-0" vertex="1">
                    <mxGeometry y="164" width="230" height="26" as="geometry"/>
                </mxCell>
                <mxCell id="9TWkfeMFytIOEXwtAVvO-17" style="edgeStyle=orthogonalEdgeStyle;rounded=0;orthogonalLoop=1;jettySize=auto;html=1;endArrow=classic;endFill=1;" parent="WIyWlLk6GJQsqaUBKTNV-1" source="gVJZ379J9d6tVCcwHyOa-7" target="9TWkfeMFytIOEXwtAVvO-3" edge="1">
                    <mxGeometry relative="1" as="geometry"/>
                </mxCell>
                <mxCell id="gVJZ379J9d6tVCcwHyOa-7" value="Switch" style="swimlane;fontStyle=1;align=center;verticalAlign=top;childLayout=stackLayout;horizontal=1;startSize=26;horizontalStack=0;resizeParent=1;resizeParentMax=0;resizeLast=0;collapsible=1;marginBottom=0;" parent="WIyWlLk6GJQsqaUBKTNV-1" vertex="1">
                    <mxGeometry x="150" y="350" width="260" height="476" as="geometry"/>
                </mxCell>
                <mxCell id="gVJZ379J9d6tVCcwHyOa-8" value="_id : str &amp; unique" style="text;strokeColor=none;fillColor=none;align=left;verticalAlign=top;spacingLeft=4;spacingRight=4;overflow=hidden;rotatable=0;points=[[0,0.5],[1,0.5]];portConstraint=eastwest;" parent="gVJZ379J9d6tVCcwHyOa-7" vertex="1">
                    <mxGeometry y="26" width="260" height="26" as="geometry"/>
                </mxCell>
                <mxCell id="3d2FjKBtex3CsvdyGf3n-1" value="desc : str &amp; notnone" style="text;strokeColor=none;fillColor=none;align=left;verticalAlign=top;spacingLeft=4;spacingRight=4;overflow=hidden;rotatable=0;points=[[0,0.5],[1,0.5]];portConstraint=eastwest;" parent="gVJZ379J9d6tVCcwHyOa-7" vertex="1">
                    <mxGeometry y="52" width="260" height="26" as="geometry"/>
                </mxCell>
                <mxCell id="gVJZ379J9d6tVCcwHyOa-11" value="addr : str &amp; unique &amp; notnone" style="text;strokeColor=none;fillColor=none;align=left;verticalAlign=top;spacingLeft=4;spacingRight=4;overflow=hidden;rotatable=0;points=[[0,0.5],[1,0.5]];portConstraint=eastwest;" parent="gVJZ379J9d6tVCcwHyOa-7" vertex="1">
                    <mxGeometry y="78" width="260" height="26" as="geometry"/>
                </mxCell>
                <mxCell id="gVJZ379J9d6tVCcwHyOa-12" value="user : str &amp; notnone" style="text;strokeColor=none;fillColor=none;align=left;verticalAlign=top;spacingLeft=4;spacingRight=4;overflow=hidden;rotatable=0;points=[[0,0.5],[1,0.5]];portConstraint=eastwest;" parent="gVJZ379J9d6tVCcwHyOa-7" vertex="1">
                    <mxGeometry y="104" width="260" height="26" as="geometry"/>
                </mxCell>
                <mxCell id="gVJZ379J9d6tVCcwHyOa-13" value="pw : str &amp; notnone" style="text;strokeColor=none;fillColor=none;align=left;verticalAlign=top;spacingLeft=4;spacingRight=4;overflow=hidden;rotatable=0;points=[[0,0.5],[1,0.5]];portConstraint=eastwest;" parent="gVJZ379J9d6tVCcwHyOa-7" vertex="1">
                    <mxGeometry y="130" width="260" height="26" as="geometry"/>
                </mxCell>
                <mxCell id="gVJZ379J9d6tVCcwHyOa-14" value="purpose : int &amp; notnone" style="text;strokeColor=none;fillColor=none;align=left;verticalAlign=top;spacingLeft=4;spacingRight=4;overflow=hidden;rotatable=0;points=[[0,0.5],[1,0.5]];portConstraint=eastwest;" parent="gVJZ379J9d6tVCcwHyOa-7" vertex="1">
                    <mxGeometry y="156" width="260" height="26" as="geometry"/>
                </mxCell>
                <mxCell id="0" value="commited : bool" style="text;strokeColor=none;fillColor=none;align=left;verticalAlign=top;spacingLeft=4;spacingRight=4;overflow=hidden;rotatable=0;points=[[0,0.5],[1,0.5]];portConstraint=eastwest;" parent="gVJZ379J9d6tVCcwHyOa-7" vertex="1">
                    <mxGeometry y="182" width="260" height="26" as="geometry"/>
                </mxCell>
                <mxCell id="gVJZ379J9d6tVCcwHyOa-15" value="onboarding_vlan_id : (FK) str | None" style="text;align=left;verticalAlign=top;spacingLeft=4;spacingRight=4;overflow=hidden;rotatable=0;points=[[0,0.5],[1,0.5]];portConstraint=eastwest;" parent="gVJZ379J9d6tVCcwHyOa-7" vertex="1">
                    <mxGeometry y="208" width="260" height="26" as="geometry"/>
                </mxCell>
                <mxCell id="gVJZ379J9d6tVCcwHyOa-9" value="" style="line;strokeWidth=1;fillColor=none;align=left;verticalAlign=middle;spacingTop=-1;spacingLeft=3;spacingRight=3;rotatable=0;labelPosition=right;points=[];portConstraint=eastwest;" parent="gVJZ379J9d6tVCcwHyOa-7" vertex="1">
                    <mxGeometry y="234" width="260" height="8" as="geometry"/>
                </mxCell>
                <mxCell id="gVJZ379J9d6tVCcwHyOa-10" value="connected() : bool" style="text;align=left;verticalAlign=top;spacingLeft=4;spacingRight=4;overflow=hidden;rotatable=0;points=[[0,0.5],[1,0.5]];portConstraint=eastwest;" parent="gVJZ379J9d6tVCcwHyOa-7" vertex="1">
                    <mxGeometry y="242" width="260" height="26" as="geometry"/>
                </mxCell>
                <mxCell id="-pVnUMsyjvqrf6X-O5Pp-2" value="mac_addr() : str" style="text;align=left;verticalAlign=top;spacingLeft=4;spacingRight=4;overflow=hidden;rotatable=0;points=[[0,0.5],[1,0.5]];portConstraint=eastwest;" parent="gVJZ379J9d6tVCcwHyOa-7" vertex="1">
                    <mxGeometry y="268" width="260" height="26" as="geometry"/>
                </mxCell>
                <mxCell id="-pVnUMsyjvqrf6X-O5Pp-0" value="scan_devices() : int" style="text;align=left;verticalAlign=top;spacingLeft=4;spacingRight=4;overflow=hidden;rotatable=0;points=[[0,0.5],[1,0.5]];portConstraint=eastwest;" parent="gVJZ379J9d6tVCcwHyOa-7" vertex="1">
                    <mxGeometry y="294" width="260" height="26" as="geometry"/>
                </mxCell>
                <mxCell id="9TWkfeMFytIOEXwtAVvO-20" value="scan_vlans() : int" style="text;align=left;verticalAlign=top;spacingLeft=4;spacingRight=4;overflow=hidden;rotatable=0;points=[[0,0.5],[1,0.5]];portConstraint=eastwest;" parent="gVJZ379J9d6tVCcwHyOa-7" vertex="1">
                    <mxGeometry y="320" width="260" height="26" as="geometry"/>
                </mxCell>
                <mxCell id="ZMA68TP57f_UoP05x5sL-0" value="scan_ports() : int" style="text;align=left;verticalAlign=top;spacingLeft=4;spacingRight=4;overflow=hidden;rotatable=0;points=[[0,0.5],[1,0.5]];portConstraint=eastwest;" parent="gVJZ379J9d6tVCcwHyOa-7" vertex="1">
                    <mxGeometry y="346" width="260" height="26" as="geometry"/>
                </mxCell>
                <mxCell id="BRod8EQPQacFUalKpDD5-0" value="scanned_port_hosts(int) : list(str)" style="text;align=left;verticalAlign=top;spacingLeft=4;spacingRight=4;overflow=hidden;rotatable=0;points=[[0,0.5],[1,0.5]];portConstraint=eastwest;" parent="gVJZ379J9d6tVCcwHyOa-7" vertex="1">
                    <mxGeometry y="372" width="260" height="26" as="geometry"/>
                </mxCell>
                <mxCell id="9TWkfeMFytIOEXwtAVvO-19" value="known_vlans() : list" style="text;align=left;verticalAlign=top;spacingLeft=4;spacingRight=4;overflow=hidden;rotatable=0;points=[[0,0.5],[1,0.5]];portConstraint=eastwest;" parent="gVJZ379J9d6tVCcwHyOa-7" vertex="1">
                    <mxGeometry y="398" width="260" height="26" as="geometry"/>
                </mxCell>
                <mxCell id="39nEtI6EG8Rg9S1Oo0Wg-2" value="add_vlan(vlan_id) : int" style="text;strokeColor=none;fillColor=none;align=left;verticalAlign=top;spacingLeft=4;spacingRight=4;overflow=hidden;rotatable=0;points=[[0,0.5],[1,0.5]];portConstraint=eastwest;" parent="gVJZ379J9d6tVCcwHyOa-7" vertex="1">
                    <mxGeometry y="424" width="260" height="26" as="geometry"/>
                </mxCell>
                <mxCell id="39nEtI6EG8Rg9S1Oo0Wg-1" value="remove_vlan(vlan_id) : int" style="text;strokeColor=none;fillColor=none;align=left;verticalAlign=top;spacingLeft=4;spacingRight=4;overflow=hidden;rotatable=0;points=[[0,0.5],[1,0.5]];portConstraint=eastwest;" parent="gVJZ379J9d6tVCcwHyOa-7" vertex="1">
                    <mxGeometry y="450" width="260" height="26" as="geometry"/>
                </mxCell>
                <mxCell id="gVJZ379J9d6tVCcwHyOa-17" style="rounded=0;orthogonalLoop=1;jettySize=auto;html=1;exitX=1;exitY=0.5;exitDx=0;exitDy=0;dashed=1;fillColor=#fff2cc;strokeColor=#d6b656;endArrow=none;endFill=0;entryX=0;entryY=0.5;entryDx=0;entryDy=0;" parent="WIyWlLk6GJQsqaUBKTNV-1" source="gVJZ379J9d6tVCcwHyOa-16" target="gVJZ379J9d6tVCcwHyOa-14" edge="1">
                    <mxGeometry relative="1" as="geometry"/>
                </mxCell>
                <mxCell id="gVJZ379J9d6tVCcwHyOa-16" value="0: core&lt;br&gt;1: participants&lt;br&gt;2: mixed" style="rounded=0;whiteSpace=wrap;html=1;autosize=1;fillColor=#fff2cc;strokeColor=#d6b656;dashed=1;align=left;verticalAlign=middle;horizontal=1;labelPosition=center;verticalLabelPosition=middle;" parent="WIyWlLk6GJQsqaUBKTNV-1" vertex="1">
                    <mxGeometry y="550" width="90" height="50" as="geometry"/>
                </mxCell>
                <mxCell id="gVJZ379J9d6tVCcwHyOa-20" style="edgeStyle=none;rounded=0;orthogonalLoop=1;jettySize=auto;html=1;exitX=0;exitY=0.5;exitDx=0;exitDy=0;dashed=1;endArrow=none;endFill=0;fillColor=#fff2cc;strokeColor=#d6b656;entryX=1;entryY=0.5;entryDx=0;entryDy=0;" parent="WIyWlLk6GJQsqaUBKTNV-1" source="gVJZ379J9d6tVCcwHyOa-19" target="gVJZ379J9d6tVCcwHyOa-5" edge="1">
                    <mxGeometry relative="1" as="geometry"/>
                </mxCell>
                <mxCell id="gVJZ379J9d6tVCcwHyOa-19" value="0: play&lt;br&gt;1: mgmt&lt;br&gt;2: onboarding&lt;br&gt;3: other" style="rounded=0;whiteSpace=wrap;html=1;autosize=1;fillColor=#fff2cc;strokeColor=#d6b656;dashed=1;align=left;verticalAlign=middle;horizontal=1;labelPosition=center;verticalLabelPosition=middle;" parent="WIyWlLk6GJQsqaUBKTNV-1" vertex="1">
                    <mxGeometry x="1000" y="664" width="90" height="60" as="geometry"/>
                </mxCell>
                <mxCell id="gVJZ379J9d6tVCcwHyOa-21" style="edgeStyle=orthogonalEdgeStyle;rounded=0;orthogonalLoop=1;jettySize=auto;html=1;endArrow=classic;endFill=1;" parent="WIyWlLk6GJQsqaUBKTNV-1" source="gVJZ379J9d6tVCcwHyOa-0" target="gVJZ379J9d6tVCcwHyOa-15" edge="1">
                    <mxGeometry relative="1" as="geometry"/>
                </mxCell>
                <mxCell id="gVJZ379J9d6tVCcwHyOa-22" value="Table" style="swimlane;fontStyle=1;align=center;verticalAlign=top;childLayout=stackLayout;horizontal=1;startSize=26;horizontalStack=0;resizeParent=1;resizeParentMax=0;resizeLast=0;collapsible=1;marginBottom=0;" parent="WIyWlLk6GJQsqaUBKTNV-1" vertex="1">
                    <mxGeometry x="320" y="860" width="260" height="216" as="geometry"/>
                </mxCell>
                <mxCell id="gVJZ379J9d6tVCcwHyOa-23" value="_id : str &amp; unique" style="text;strokeColor=none;fillColor=none;align=left;verticalAlign=top;spacingLeft=4;spacingRight=4;overflow=hidden;rotatable=0;points=[[0,0.5],[1,0.5]];portConstraint=eastwest;dashed=1;" parent="gVJZ379J9d6tVCcwHyOa-22" vertex="1">
                    <mxGeometry y="26" width="260" height="26" as="geometry"/>
                </mxCell>
                <mxCell id="gVJZ379J9d6tVCcwHyOa-26" value="number : int &amp; unique &amp; notnone" style="text;align=left;verticalAlign=top;spacingLeft=4;spacingRight=4;overflow=hidden;rotatable=0;points=[[0,0.5],[1,0.5]];portConstraint=eastwest;dashed=1;" parent="gVJZ379J9d6tVCcwHyOa-22" vertex="1">
                    <mxGeometry y="52" width="260" height="26" as="geometry"/>
                </mxCell>
                <mxCell id="gVJZ379J9d6tVCcwHyOa-27" value="desc : str &amp; notnone" style="text;strokeColor=none;fillColor=none;align=left;verticalAlign=top;spacingLeft=4;spacingRight=4;overflow=hidden;rotatable=0;points=[[0,0.5],[1,0.5]];portConstraint=eastwest;dashed=1;" parent="gVJZ379J9d6tVCcwHyOa-22" vertex="1">
                    <mxGeometry y="78" width="260" height="26" as="geometry"/>
                </mxCell>
                <mxCell id="gVJZ379J9d6tVCcwHyOa-28" value="switch_id : (FK) str &amp; notnone" style="text;align=left;verticalAlign=top;spacingLeft=4;spacingRight=4;overflow=hidden;rotatable=0;points=[[0,0.5],[1,0.5]];portConstraint=eastwest;dashed=1;" parent="gVJZ379J9d6tVCcwHyOa-22" vertex="1">
                    <mxGeometry y="104" width="260" height="26" as="geometry"/>
                </mxCell>
                <mxCell id="vAM5PY0zjY4WqJqc9oYO-8" value="seat_ip_pool_id : (FK) str &amp; unique &amp; notnone" style="text;align=left;verticalAlign=top;spacingLeft=4;spacingRight=4;overflow=hidden;rotatable=0;points=[[0,0.5],[1,0.5]];portConstraint=eastwest;dashed=1;" parent="gVJZ379J9d6tVCcwHyOa-22" vertex="1">
                    <mxGeometry y="130" width="260" height="26" as="geometry"/>
                </mxCell>
                <mxCell id="gVJZ379J9d6tVCcwHyOa-29" value="add_ip_pool_id : (FK) str &amp; notnone" style="text;align=left;verticalAlign=top;spacingLeft=4;spacingRight=4;overflow=hidden;rotatable=0;points=[[0,0.5],[1,0.5]];portConstraint=eastwest;dashed=1;" parent="gVJZ379J9d6tVCcwHyOa-22" vertex="1">
                    <mxGeometry y="156" width="260" height="26" as="geometry"/>
                </mxCell>
                <mxCell id="gVJZ379J9d6tVCcwHyOa-24" value="" style="line;strokeWidth=1;fillColor=none;align=left;verticalAlign=middle;spacingTop=-1;spacingLeft=3;spacingRight=3;rotatable=0;labelPosition=right;points=[];portConstraint=eastwest;" parent="gVJZ379J9d6tVCcwHyOa-22" vertex="1">
                    <mxGeometry y="182" width="260" height="8" as="geometry"/>
                </mxCell>
                <mxCell id="KneBfozvFxUDaoRyiVPA-1" value="get_by_number(number) : Table | None" style="text;align=left;verticalAlign=top;spacingLeft=4;spacingRight=4;overflow=hidden;rotatable=0;points=[[0,0.5],[1,0.5]];portConstraint=eastwest;dashed=1;" parent="gVJZ379J9d6tVCcwHyOa-22" vertex="1">
                    <mxGeometry y="190" width="260" height="26" as="geometry"/>
                </mxCell>
                <mxCell id="gVJZ379J9d6tVCcwHyOa-30" style="edgeStyle=orthogonalEdgeStyle;rounded=0;orthogonalLoop=1;jettySize=auto;html=1;endArrow=classic;endFill=1;" parent="WIyWlLk6GJQsqaUBKTNV-1" source="gVJZ379J9d6tVCcwHyOa-7" target="gVJZ379J9d6tVCcwHyOa-28" edge="1">
                    <mxGeometry relative="1" as="geometry"/>
                </mxCell>
                <mxCell id="gVJZ379J9d6tVCcwHyOa-41" style="edgeStyle=orthogonalEdgeStyle;rounded=0;orthogonalLoop=1;jettySize=auto;html=1;endArrow=classic;endFill=1;" parent="WIyWlLk6GJQsqaUBKTNV-1" source="gVJZ379J9d6tVCcwHyOa-31" target="gVJZ379J9d6tVCcwHyOa-29" edge="1">
                    <mxGeometry relative="1" as="geometry"/>
                </mxCell>
                <mxCell id="dCRM20Tx0oy-plVv80e_-0" style="edgeStyle=orthogonalEdgeStyle;rounded=0;orthogonalLoop=1;jettySize=auto;html=1;" parent="WIyWlLk6GJQsqaUBKTNV-1" source="gVJZ379J9d6tVCcwHyOa-31" target="vAM5PY0zjY4WqJqc9oYO-8" edge="1">
                    <mxGeometry relative="1" as="geometry"/>
                </mxCell>
                <mxCell id="gVJZ379J9d6tVCcwHyOa-31" value="IpPool" style="swimlane;fontStyle=1;align=center;verticalAlign=top;childLayout=stackLayout;horizontal=1;startSize=26;horizontalStack=0;resizeParent=1;resizeParentMax=0;resizeLast=0;collapsible=1;marginBottom=0;" parent="WIyWlLk6GJQsqaUBKTNV-1" vertex="1">
                    <mxGeometry x="540" y="1125" width="240" height="320" as="geometry"/>
                </mxCell>
                <mxCell id="gVJZ379J9d6tVCcwHyOa-32" value="_id : str &amp; unique" style="text;strokeColor=none;fillColor=none;align=left;verticalAlign=top;spacingLeft=4;spacingRight=4;overflow=hidden;rotatable=0;points=[[0,0.5],[1,0.5]];portConstraint=eastwest;" parent="gVJZ379J9d6tVCcwHyOa-31" vertex="1">
                    <mxGeometry y="26" width="240" height="26" as="geometry"/>
                </mxCell>
                <mxCell id="gVJZ379J9d6tVCcwHyOa-36" value="desc : str &amp; notnone" style="text;strokeColor=none;fillColor=none;align=left;verticalAlign=top;spacingLeft=4;spacingRight=4;overflow=hidden;rotatable=0;points=[[0,0.5],[1,0.5]];portConstraint=eastwest;" parent="gVJZ379J9d6tVCcwHyOa-31" vertex="1">
                    <mxGeometry y="52" width="240" height="26" as="geometry"/>
                </mxCell>
                <mxCell id="gVJZ379J9d6tVCcwHyOa-37" value="mask : int &amp; notnone" style="text;strokeColor=none;fillColor=none;align=left;verticalAlign=top;spacingLeft=4;spacingRight=4;overflow=hidden;rotatable=0;points=[[0,0.5],[1,0.5]];portConstraint=eastwest;" parent="gVJZ379J9d6tVCcwHyOa-31" vertex="1">
                    <mxGeometry y="78" width="240" height="26" as="geometry"/>
                </mxCell>
                <mxCell id="gVJZ379J9d6tVCcwHyOa-38" value="range_start : int &amp; notnone" style="text;strokeColor=none;fillColor=none;align=left;verticalAlign=top;spacingLeft=4;spacingRight=4;overflow=hidden;rotatable=0;points=[[0,0.5],[1,0.5]];portConstraint=eastwest;" parent="gVJZ379J9d6tVCcwHyOa-31" vertex="1">
                    <mxGeometry y="104" width="240" height="26" as="geometry"/>
                </mxCell>
                <mxCell id="gVJZ379J9d6tVCcwHyOa-39" value="range_end : int &amp; notnone" style="text;strokeColor=none;fillColor=none;align=left;verticalAlign=top;spacingLeft=4;spacingRight=4;overflow=hidden;rotatable=0;points=[[0,0.5],[1,0.5]];portConstraint=eastwest;" parent="gVJZ379J9d6tVCcwHyOa-31" vertex="1">
                    <mxGeometry y="130" width="240" height="26" as="geometry"/>
                </mxCell>
                <mxCell id="XcCMjglspVvn5nmTnYer-0" value="lpos : boolean &amp; notnone" style="text;align=left;verticalAlign=top;spacingLeft=4;spacingRight=4;overflow=hidden;rotatable=0;points=[[0,0.5],[1,0.5]];portConstraint=eastwest;" parent="gVJZ379J9d6tVCcwHyOa-31" vertex="1">
                    <mxGeometry y="156" width="240" height="26" as="geometry"/>
                </mxCell>
                <mxCell id="gVJZ379J9d6tVCcwHyOa-40" value="vlan_id : (FK) str &amp; notnone" style="text;align=left;verticalAlign=top;spacingLeft=4;spacingRight=4;overflow=hidden;rotatable=0;points=[[0,0.5],[1,0.5]];portConstraint=eastwest;" parent="gVJZ379J9d6tVCcwHyOa-31" vertex="1">
                    <mxGeometry y="182" width="240" height="26" as="geometry"/>
                </mxCell>
                <mxCell id="gVJZ379J9d6tVCcwHyOa-33" value="" style="line;strokeWidth=1;fillColor=none;align=left;verticalAlign=middle;spacingTop=-1;spacingLeft=3;spacingRight=3;rotatable=0;labelPosition=right;points=[];portConstraint=eastwest;" parent="gVJZ379J9d6tVCcwHyOa-31" vertex="1">
                    <mxGeometry y="208" width="240" height="8" as="geometry"/>
                </mxCell>
                <mxCell id="8Eqw0ziEns722cpIcKay-0" value="get_by_vlan(string) : list[IpPool]" style="text;align=left;verticalAlign=top;spacingLeft=4;spacingRight=4;overflow=hidden;rotatable=0;points=[[0,0.5],[1,0.5]];portConstraint=eastwest;" parent="gVJZ379J9d6tVCcwHyOa-31" vertex="1">
                    <mxGeometry y="216" width="240" height="26" as="geometry"/>
                </mxCell>
                <mxCell id="Kpg7MBfzIN28lEDDcwHs-5" value="mask(boolean, boolean) : int | int[] | str" style="text;align=left;verticalAlign=top;spacingLeft=4;spacingRight=4;overflow=hidden;rotatable=0;points=[[0,0.5],[1,0.5]];portConstraint=eastwest;" parent="gVJZ379J9d6tVCcwHyOa-31" vertex="1">
                    <mxGeometry y="242" width="240" height="26" as="geometry"/>
                </mxCell>
                <mxCell id="Kpg7MBfzIN28lEDDcwHs-4" value="mask_dotted() : str" style="text;align=left;verticalAlign=top;spacingLeft=4;spacingRight=4;overflow=hidden;rotatable=0;points=[[0,0.5],[1,0.5]];portConstraint=eastwest;" parent="gVJZ379J9d6tVCcwHyOa-31" vertex="1">
                    <mxGeometry y="268" width="240" height="26" as="geometry"/>
                </mxCell>
                <mxCell id="Kpg7MBfzIN28lEDDcwHs-6" value="subnet_ip(boolean, boolean) : int | int[] | str" style="text;align=left;verticalAlign=top;spacingLeft=4;spacingRight=4;overflow=hidden;rotatable=0;points=[[0,0.5],[1,0.5]];portConstraint=eastwest;" parent="gVJZ379J9d6tVCcwHyOa-31" vertex="1">
                    <mxGeometry y="294" width="240" height="26" as="geometry"/>
                </mxCell>
                <mxCell id="gVJZ379J9d6tVCcwHyOa-45" style="edgeStyle=none;rounded=0;orthogonalLoop=1;jettySize=auto;html=1;exitX=0;exitY=0.5;exitDx=0;exitDy=0;dashed=1;endArrow=none;endFill=0;entryX=1;entryY=0.5;entryDx=0;entryDy=0;fillColor=#fff2cc;strokeColor=#d6b656;" parent="WIyWlLk6GJQsqaUBKTNV-1" source="gVJZ379J9d6tVCcwHyOa-44" target="gVJZ379J9d6tVCcwHyOa-38" edge="1">
                    <mxGeometry relative="1" as="geometry">
                        <mxPoint x="780" y="1170" as="targetPoint"/>
                    </mxGeometry>
                </mxCell>
                <mxCell id="gVJZ379J9d6tVCcwHyOa-44" value="the 4-octetts one&lt;br&gt;after the other as&lt;br&gt;32 bits represented&lt;br&gt;as int" style="rounded=0;whiteSpace=wrap;html=1;autosize=1;fillColor=#fff2cc;strokeColor=#d6b656;dashed=1;align=left;verticalAlign=middle;horizontal=1;labelPosition=center;verticalLabelPosition=middle;" parent="WIyWlLk6GJQsqaUBKTNV-1" vertex="1">
                    <mxGeometry x="860" y="1114.5" width="120" height="60" as="geometry"/>
                </mxCell>
                <mxCell id="gVJZ379J9d6tVCcwHyOa-46" style="edgeStyle=none;rounded=0;orthogonalLoop=1;jettySize=auto;html=1;exitX=1;exitY=0.5;exitDx=0;exitDy=0;entryX=0;entryY=0.5;entryDx=0;entryDy=0;dashed=1;endArrow=none;endFill=0;fillColor=#fff2cc;strokeColor=#d6b656;" parent="WIyWlLk6GJQsqaUBKTNV-1" source="gVJZ379J9d6tVCcwHyOa-39" target="gVJZ379J9d6tVCcwHyOa-44" edge="1">
                    <mxGeometry relative="1" as="geometry"/>
                </mxCell>
                <mxCell id="gVJZ379J9d6tVCcwHyOa-64" style="edgeStyle=orthogonalEdgeStyle;rounded=0;orthogonalLoop=1;jettySize=auto;html=1;endArrow=classic;endFill=1;" parent="WIyWlLk6GJQsqaUBKTNV-1" source="gVJZ379J9d6tVCcwHyOa-47" target="gVJZ379J9d6tVCcwHyOa-63" edge="1">
                    <mxGeometry relative="1" as="geometry"/>
                </mxCell>
                <mxCell id="gVJZ379J9d6tVCcwHyOa-47" value="Seat" style="swimlane;fontStyle=1;align=center;verticalAlign=top;childLayout=stackLayout;horizontal=1;startSize=26;horizontalStack=0;resizeParent=1;resizeParentMax=0;resizeLast=0;collapsible=1;marginBottom=0;" parent="WIyWlLk6GJQsqaUBKTNV-1" vertex="1">
                    <mxGeometry x="70" y="1095" width="270" height="294" as="geometry"/>
                </mxCell>
                <mxCell id="gVJZ379J9d6tVCcwHyOa-48" value="_id : str &amp; unique" style="text;strokeColor=none;fillColor=none;align=left;verticalAlign=top;spacingLeft=4;spacingRight=4;overflow=hidden;rotatable=0;points=[[0,0.5],[1,0.5]];portConstraint=eastwest;" parent="gVJZ379J9d6tVCcwHyOa-47" vertex="1">
                    <mxGeometry y="26" width="270" height="26" as="geometry"/>
                </mxCell>
                <mxCell id="gVJZ379J9d6tVCcwHyOa-51" value="number : int &amp; notnone" style="text;strokeColor=none;fillColor=none;align=left;verticalAlign=top;spacingLeft=4;spacingRight=4;overflow=hidden;rotatable=0;points=[[0,0.5],[1,0.5]];portConstraint=eastwest;" parent="gVJZ379J9d6tVCcwHyOa-47" vertex="1">
                    <mxGeometry y="52" width="270" height="26" as="geometry"/>
                </mxCell>
                <mxCell id="2" value="number_absolute : int &amp; unique | None" style="text;strokeColor=none;fillColor=none;align=left;verticalAlign=top;spacingLeft=4;spacingRight=4;overflow=hidden;rotatable=0;points=[[0,0.5],[1,0.5]];portConstraint=eastwest;" parent="gVJZ379J9d6tVCcwHyOa-47" vertex="1">
                    <mxGeometry y="78" width="270" height="26" as="geometry"/>
                </mxCell>
                <mxCell id="gVJZ379J9d6tVCcwHyOa-52" value="pw : str | None" style="text;strokeColor=none;fillColor=none;align=left;verticalAlign=top;spacingLeft=4;spacingRight=4;overflow=hidden;rotatable=0;points=[[0,0.5],[1,0.5]];portConstraint=eastwest;" parent="gVJZ379J9d6tVCcwHyOa-47" vertex="1">
                    <mxGeometry y="104" width="270" height="26" as="geometry"/>
                </mxCell>
                <mxCell id="gVJZ379J9d6tVCcwHyOa-53" value="table_id : (FK) str &amp; notnone" style="text;align=left;verticalAlign=top;spacingLeft=4;spacingRight=4;overflow=hidden;rotatable=0;points=[[0,0.5],[1,0.5]];portConstraint=eastwest;" parent="gVJZ379J9d6tVCcwHyOa-47" vertex="1">
                    <mxGeometry y="130" width="270" height="26" as="geometry"/>
                </mxCell>
                <mxCell id="IFab8e8TqIqr9hhUwP3T-2" value="claiming_device_id : (FK) str | None" style="text;align=left;verticalAlign=top;spacingLeft=4;spacingRight=4;overflow=hidden;rotatable=0;points=[[0,0.5],[1,0.5]];portConstraint=eastwest;" parent="gVJZ379J9d6tVCcwHyOa-47" vertex="1">
                    <mxGeometry y="156" width="270" height="26" as="geometry"/>
                </mxCell>
                <mxCell id="gVJZ379J9d6tVCcwHyOa-49" value="" style="line;strokeWidth=1;fillColor=none;align=left;verticalAlign=middle;spacingTop=-1;spacingLeft=3;spacingRight=3;rotatable=0;labelPosition=right;points=[];portConstraint=eastwest;" parent="gVJZ379J9d6tVCcwHyOa-47" vertex="1">
                    <mxGeometry y="182" width="270" height="8" as="geometry"/>
                </mxCell>
                <mxCell id="8xRL7pxxm5YzOSyOTPmR-0" value="get_by_table(table_id) : list[Seat]" style="text;align=left;verticalAlign=top;spacingLeft=4;spacingRight=4;overflow=hidden;rotatable=0;points=[[0,0.5],[1,0.5]];portConstraint=eastwest;" parent="gVJZ379J9d6tVCcwHyOa-47" vertex="1">
                    <mxGeometry y="190" width="270" height="26" as="geometry"/>
                </mxCell>
                <mxCell id="KneBfozvFxUDaoRyiVPA-0" value="get_by_number(table_id, number) : Seat | None" style="text;align=left;verticalAlign=top;spacingLeft=4;spacingRight=4;overflow=hidden;rotatable=0;points=[[0,0.5],[1,0.5]];portConstraint=eastwest;" parent="gVJZ379J9d6tVCcwHyOa-47" vertex="1">
                    <mxGeometry y="216" width="270" height="26" as="geometry"/>
                </mxCell>
                <mxCell id="RST4Y4tf22xGkHs4wUn--4" value="get_by_number_absolute(number) : Seat | None" style="text;align=left;verticalAlign=top;spacingLeft=4;spacingRight=4;overflow=hidden;rotatable=0;points=[[0,0.5],[1,0.5]];portConstraint=eastwest;" parent="gVJZ379J9d6tVCcwHyOa-47" vertex="1">
                    <mxGeometry y="242" width="270" height="26" as="geometry"/>
                </mxCell>
                <mxCell id="KneBfozvFxUDaoRyiVPA-4" value="get_by_claiming(device_id) : Seat | None" style="text;align=left;verticalAlign=top;spacingLeft=4;spacingRight=4;overflow=hidden;rotatable=0;points=[[0,0.5],[1,0.5]];portConstraint=eastwest;" parent="gVJZ379J9d6tVCcwHyOa-47" vertex="1">
                    <mxGeometry y="268" width="270" height="26" as="geometry"/>
                </mxCell>
                <mxCell id="gVJZ379J9d6tVCcwHyOa-54" style="edgeStyle=orthogonalEdgeStyle;rounded=0;orthogonalLoop=1;jettySize=auto;html=1;endArrow=classic;endFill=1;" parent="WIyWlLk6GJQsqaUBKTNV-1" source="gVJZ379J9d6tVCcwHyOa-22" target="gVJZ379J9d6tVCcwHyOa-53" edge="1">
                    <mxGeometry relative="1" as="geometry"/>
                </mxCell>
                <mxCell id="gVJZ379J9d6tVCcwHyOa-55" value="Participant" style="swimlane;fontStyle=1;align=center;verticalAlign=top;childLayout=stackLayout;horizontal=1;startSize=26;horizontalStack=0;resizeParent=1;resizeParentMax=0;resizeLast=0;collapsible=1;marginBottom=0;" parent="WIyWlLk6GJQsqaUBKTNV-1" vertex="1">
                    <mxGeometry x="-320" y="840" width="220" height="242" as="geometry"/>
                </mxCell>
                <mxCell id="gVJZ379J9d6tVCcwHyOa-56" value="_id : str &amp; unique" style="text;strokeColor=none;fillColor=none;align=left;verticalAlign=top;spacingLeft=4;spacingRight=4;overflow=hidden;rotatable=0;points=[[0,0.5],[1,0.5]];portConstraint=eastwest;" parent="gVJZ379J9d6tVCcwHyOa-55" vertex="1">
                    <mxGeometry y="26" width="220" height="26" as="geometry"/>
                </mxCell>
                <mxCell id="gVJZ379J9d6tVCcwHyOa-59" value="admin : bool &amp; notnone" style="text;strokeColor=none;fillColor=none;align=left;verticalAlign=top;spacingLeft=4;spacingRight=4;overflow=hidden;rotatable=0;points=[[0,0.5],[1,0.5]];portConstraint=eastwest;" parent="gVJZ379J9d6tVCcwHyOa-55" vertex="1">
                    <mxGeometry y="52" width="220" height="26" as="geometry"/>
                </mxCell>
                <mxCell id="gVJZ379J9d6tVCcwHyOa-60" value="name : str &amp; notnone" style="text;strokeColor=none;fillColor=none;align=left;verticalAlign=top;spacingLeft=4;spacingRight=4;overflow=hidden;rotatable=0;points=[[0,0.5],[1,0.5]];portConstraint=eastwest;" parent="gVJZ379J9d6tVCcwHyOa-55" vertex="1">
                    <mxGeometry y="78" width="220" height="26" as="geometry"/>
                </mxCell>
                <mxCell id="gVJZ379J9d6tVCcwHyOa-61" value="login : str &amp; unique | None" style="text;strokeColor=none;fillColor=none;align=left;verticalAlign=top;spacingLeft=4;spacingRight=4;overflow=hidden;rotatable=0;points=[[0,0.5],[1,0.5]];portConstraint=eastwest;" parent="gVJZ379J9d6tVCcwHyOa-55" vertex="1">
                    <mxGeometry y="104" width="220" height="26" as="geometry"/>
                </mxCell>
                <mxCell id="gVJZ379J9d6tVCcwHyOa-62" value="pw : str | None" style="text;strokeColor=none;fillColor=none;align=left;verticalAlign=top;spacingLeft=4;spacingRight=4;overflow=hidden;rotatable=0;points=[[0,0.5],[1,0.5]];portConstraint=eastwest;" parent="gVJZ379J9d6tVCcwHyOa-55" vertex="1">
                    <mxGeometry y="130" width="220" height="26" as="geometry"/>
                </mxCell>
                <mxCell id="gVJZ379J9d6tVCcwHyOa-63" value="seat_id : (FK) str &amp; unique | None" style="text;align=left;verticalAlign=top;spacingLeft=4;spacingRight=4;overflow=hidden;rotatable=0;points=[[0,0.5],[1,0.5]];portConstraint=eastwest;" parent="gVJZ379J9d6tVCcwHyOa-55" vertex="1">
                    <mxGeometry y="156" width="220" height="26" as="geometry"/>
                </mxCell>
                <mxCell id="gVJZ379J9d6tVCcwHyOa-57" value="" style="line;strokeWidth=1;fillColor=none;align=left;verticalAlign=middle;spacingTop=-1;spacingLeft=3;spacingRight=3;rotatable=0;labelPosition=right;points=[];portConstraint=eastwest;" parent="gVJZ379J9d6tVCcwHyOa-55" vertex="1">
                    <mxGeometry y="182" width="220" height="8" as="geometry"/>
                </mxCell>
                <mxCell id="dF33lPYcqgTTw5QCk_FV-2" value="get_by_login(login) : Participant | None" style="text;strokeColor=none;fillColor=none;align=left;verticalAlign=top;spacingLeft=4;spacingRight=4;overflow=hidden;rotatable=0;points=[[0,0.5],[1,0.5]];portConstraint=eastwest;" parent="gVJZ379J9d6tVCcwHyOa-55" vertex="1">
                    <mxGeometry y="190" width="220" height="26" as="geometry"/>
                </mxCell>
                <mxCell id="KneBfozvFxUDaoRyiVPA-3" value="get_by_seat(id) : Participant | None" style="text;strokeColor=none;fillColor=none;align=left;verticalAlign=top;spacingLeft=4;spacingRight=4;overflow=hidden;rotatable=0;points=[[0,0.5],[1,0.5]];portConstraint=eastwest;" parent="gVJZ379J9d6tVCcwHyOa-55" vertex="1">
                    <mxGeometry y="216" width="220" height="26" as="geometry"/>
                </mxCell>
                <mxCell id="gVJZ379J9d6tVCcwHyOa-65" value="Device" style="swimlane;fontStyle=1;align=center;verticalAlign=top;childLayout=stackLayout;horizontal=1;startSize=26;horizontalStack=0;resizeParent=1;resizeParentMax=0;resizeLast=0;collapsible=1;marginBottom=0;" parent="WIyWlLk6GJQsqaUBKTNV-1" vertex="1">
                    <mxGeometry x="-175" y="1242.5" width="205" height="398" as="geometry"/>
                </mxCell>
                <mxCell id="gVJZ379J9d6tVCcwHyOa-66" value="_id : str &amp; unique" style="text;strokeColor=none;fillColor=none;align=left;verticalAlign=top;spacingLeft=4;spacingRight=4;overflow=hidden;rotatable=0;points=[[0,0.5],[1,0.5]];portConstraint=eastwest;" parent="gVJZ379J9d6tVCcwHyOa-65" vertex="1">
                    <mxGeometry y="26" width="205" height="26" as="geometry"/>
                </mxCell>
                <mxCell id="gVJZ379J9d6tVCcwHyOa-70" value="mac : str &amp; unique &amp; notnone" style="text;strokeColor=none;fillColor=none;align=left;verticalAlign=top;spacingLeft=4;spacingRight=4;overflow=hidden;rotatable=0;points=[[0,0.5],[1,0.5]];portConstraint=eastwest;" parent="gVJZ379J9d6tVCcwHyOa-65" vertex="1">
                    <mxGeometry y="52" width="205" height="26" as="geometry"/>
                </mxCell>
                <mxCell id="gVJZ379J9d6tVCcwHyOa-71" value="desc : str &amp; notnone" style="text;strokeColor=none;fillColor=none;align=left;verticalAlign=top;spacingLeft=4;spacingRight=4;overflow=hidden;rotatable=0;points=[[0,0.5],[1,0.5]];portConstraint=eastwest;" parent="gVJZ379J9d6tVCcwHyOa-65" vertex="1">
                    <mxGeometry y="78" width="205" height="26" as="geometry"/>
                </mxCell>
                <mxCell id="gVJZ379J9d6tVCcwHyOa-72" value="seat_id : (FK) str | None" style="text;align=left;verticalAlign=top;spacingLeft=4;spacingRight=4;overflow=hidden;rotatable=0;points=[[0,0.5],[1,0.5]];portConstraint=eastwest;" parent="gVJZ379J9d6tVCcwHyOa-65" vertex="1">
                    <mxGeometry y="104" width="205" height="26" as="geometry"/>
                </mxCell>
                <mxCell id="gVJZ379J9d6tVCcwHyOa-73" value="participant_id : (FK) str | None" style="text;align=left;verticalAlign=top;spacingLeft=4;spacingRight=4;overflow=hidden;rotatable=0;points=[[0,0.5],[1,0.5]];portConstraint=eastwest;" parent="gVJZ379J9d6tVCcwHyOa-65" vertex="1">
                    <mxGeometry y="130" width="205" height="26" as="geometry"/>
                </mxCell>
                <mxCell id="gVJZ379J9d6tVCcwHyOa-74" value="ip_pool_id : (FK) str | None" style="text;align=left;verticalAlign=top;spacingLeft=4;spacingRight=4;overflow=hidden;rotatable=0;points=[[0,0.5],[1,0.5]];portConstraint=eastwest;" parent="gVJZ379J9d6tVCcwHyOa-65" vertex="1">
                    <mxGeometry y="156" width="205" height="26" as="geometry"/>
                </mxCell>
                <mxCell id="gVJZ379J9d6tVCcwHyOa-75" value="ip : int &amp; unique | None" style="text;align=left;verticalAlign=top;spacingLeft=4;spacingRight=4;overflow=hidden;rotatable=0;points=[[0,0.5],[1,0.5]];portConstraint=eastwest;" parent="gVJZ379J9d6tVCcwHyOa-65" vertex="1">
                    <mxGeometry y="182" width="205" height="26" as="geometry"/>
                </mxCell>
                <mxCell id="-pVnUMsyjvqrf6X-O5Pp-4" value="port_id : (FK) str | None" style="text;align=left;verticalAlign=top;spacingLeft=4;spacingRight=4;overflow=hidden;rotatable=0;points=[[0,0.5],[1,0.5]];portConstraint=eastwest;" parent="gVJZ379J9d6tVCcwHyOa-65" vertex="1">
                    <mxGeometry y="208" width="205" height="26" as="geometry"/>
                </mxCell>
                <mxCell id="IFab8e8TqIqr9hhUwP3T-0" value="onboarding_blocked : bool" style="text;align=left;verticalAlign=top;spacingLeft=4;spacingRight=4;overflow=hidden;rotatable=0;points=[[0,0.5],[1,0.5]];portConstraint=eastwest;" parent="gVJZ379J9d6tVCcwHyOa-65" vertex="1">
                    <mxGeometry y="234" width="205" height="26" as="geometry"/>
                </mxCell>
                <mxCell id="IFab8e8TqIqr9hhUwP3T-1" value="pw_strikes : int" style="text;align=left;verticalAlign=top;spacingLeft=4;spacingRight=4;overflow=hidden;rotatable=0;points=[[0,0.5],[1,0.5]];portConstraint=eastwest;" parent="gVJZ379J9d6tVCcwHyOa-65" vertex="1">
                    <mxGeometry y="260" width="205" height="26" as="geometry"/>
                </mxCell>
                <mxCell id="5" value="last_scan_ts : int &amp; notnone" style="text;align=left;verticalAlign=top;spacingLeft=4;spacingRight=4;overflow=hidden;rotatable=0;points=[[0,0.5],[1,0.5]];portConstraint=eastwest;" parent="gVJZ379J9d6tVCcwHyOa-65" vertex="1">
                    <mxGeometry y="286" width="205" height="26" as="geometry"/>
                </mxCell>
                <mxCell id="gVJZ379J9d6tVCcwHyOa-67" value="" style="line;strokeWidth=1;fillColor=none;align=left;verticalAlign=middle;spacingTop=-1;spacingLeft=3;spacingRight=3;rotatable=0;labelPosition=right;points=[];portConstraint=eastwest;" parent="gVJZ379J9d6tVCcwHyOa-65" vertex="1">
                    <mxGeometry y="312" width="205" height="8" as="geometry"/>
                </mxCell>
                <mxCell id="-pVnUMsyjvqrf6X-O5Pp-1" value="get_by_mac(string) : Device | None" style="text;strokeColor=none;fillColor=none;align=left;verticalAlign=top;spacingLeft=4;spacingRight=4;overflow=hidden;rotatable=0;points=[[0,0.5],[1,0.5]];portConstraint=eastwest;" parent="gVJZ379J9d6tVCcwHyOa-65" vertex="1">
                    <mxGeometry y="320" width="205" height="26" as="geometry"/>
                </mxCell>
                <mxCell id="RKmNDyJnUAOdD5a3fBpU-2" value="get_by_port(string) : list[Device]" style="text;strokeColor=none;fillColor=none;align=left;verticalAlign=top;spacingLeft=4;spacingRight=4;overflow=hidden;rotatable=0;points=[[0,0.5],[1,0.5]];portConstraint=eastwest;" parent="gVJZ379J9d6tVCcwHyOa-65" vertex="1">
                    <mxGeometry y="346" width="205" height="26" as="geometry"/>
                </mxCell>
                <mxCell id="KneBfozvFxUDaoRyiVPA-2" value="get_by_seat(string) : Device | None" style="text;strokeColor=none;fillColor=none;align=left;verticalAlign=top;spacingLeft=4;spacingRight=4;overflow=hidden;rotatable=0;points=[[0,0.5],[1,0.5]];portConstraint=eastwest;" parent="gVJZ379J9d6tVCcwHyOa-65" vertex="1">
                    <mxGeometry y="372" width="205" height="26" as="geometry"/>
                </mxCell>
                <mxCell id="gVJZ379J9d6tVCcwHyOa-77" style="edgeStyle=orthogonalEdgeStyle;rounded=0;orthogonalLoop=1;jettySize=auto;html=1;endArrow=classic;endFill=1;" parent="WIyWlLk6GJQsqaUBKTNV-1" source="gVJZ379J9d6tVCcwHyOa-47" target="gVJZ379J9d6tVCcwHyOa-72" edge="1">
                    <mxGeometry relative="1" as="geometry"/>
                </mxCell>
                <mxCell id="gVJZ379J9d6tVCcwHyOa-78" style="edgeStyle=orthogonalEdgeStyle;rounded=0;orthogonalLoop=1;jettySize=auto;html=1;endArrow=classic;endFill=1;" parent="WIyWlLk6GJQsqaUBKTNV-1" source="gVJZ379J9d6tVCcwHyOa-55" target="gVJZ379J9d6tVCcwHyOa-73" edge="1">
                    <mxGeometry relative="1" as="geometry"/>
                </mxCell>
                <mxCell id="gVJZ379J9d6tVCcwHyOa-79" style="edgeStyle=orthogonalEdgeStyle;rounded=0;orthogonalLoop=1;jettySize=auto;html=1;endArrow=classic;endFill=1;" parent="WIyWlLk6GJQsqaUBKTNV-1" source="gVJZ379J9d6tVCcwHyOa-31" target="gVJZ379J9d6tVCcwHyOa-74" edge="1">
                    <mxGeometry relative="1" as="geometry">
                        <Array as="points">
                            <mxPoint x="410" y="1285"/>
                            <mxPoint x="410" y="1412"/>
                        </Array>
                    </mxGeometry>
                </mxCell>
                <mxCell id="RI2Qk7NZv4jEAk47DCzO-2" style="rounded=0;orthogonalLoop=1;jettySize=auto;html=1;exitX=0;exitY=0.5;exitDx=0;exitDy=0;fillColor=#fff2cc;strokeColor=#d6b656;dashed=1;endArrow=none;endFill=0;entryX=1;entryY=0.5;entryDx=0;entryDy=0;" parent="WIyWlLk6GJQsqaUBKTNV-1" source="RI2Qk7NZv4jEAk47DCzO-1" target="gVJZ379J9d6tVCcwHyOa-5" edge="1">
                    <mxGeometry relative="1" as="geometry"/>
                </mxCell>
                <mxCell id="RI2Qk7NZv4jEAk47DCzO-1" value="purpose 0 (play) and 1 (mgmt)&lt;br&gt;can only be used once" style="rounded=0;whiteSpace=wrap;html=1;autosize=1;fillColor=#fff2cc;strokeColor=#d6b656;dashed=1;align=left;verticalAlign=middle;horizontal=1;labelPosition=center;verticalLabelPosition=middle;" parent="WIyWlLk6GJQsqaUBKTNV-1" vertex="1">
                    <mxGeometry x="1000" y="758" width="180" height="30" as="geometry"/>
                </mxCell>
                <mxCell id="E9VT_ojXJO5M-pzNniMT-0" value="vlan needs to be of&lt;br&gt;purpose 2 (onboarding)" style="rounded=0;whiteSpace=wrap;html=1;autosize=1;fillColor=#fff2cc;strokeColor=#d6b656;dashed=1;align=left;verticalAlign=middle;horizontal=1;labelPosition=center;verticalLabelPosition=middle;" parent="WIyWlLk6GJQsqaUBKTNV-1" vertex="1">
                    <mxGeometry x="-50" y="624" width="140" height="30" as="geometry"/>
                </mxCell>
                <mxCell id="E9VT_ojXJO5M-pzNniMT-1" style="rounded=0;orthogonalLoop=1;jettySize=auto;html=1;exitX=0;exitY=0.5;exitDx=0;exitDy=0;entryX=1;entryY=0.5;entryDx=0;entryDy=0;dashed=1;fillColor=#fff2cc;strokeColor=#d6b656;endArrow=none;endFill=0;" parent="WIyWlLk6GJQsqaUBKTNV-1" source="gVJZ379J9d6tVCcwHyOa-15" target="E9VT_ojXJO5M-pzNniMT-0" edge="1">
                    <mxGeometry relative="1" as="geometry"/>
                </mxCell>
                <mxCell id="6ryFZqyBRYJDQLr4FPov-0" value="Session" style="swimlane;fontStyle=1;align=center;verticalAlign=top;childLayout=stackLayout;horizontal=1;startSize=26;horizontalStack=0;resizeParent=1;resizeParentMax=0;resizeLast=0;collapsible=1;marginBottom=0;" parent="WIyWlLk6GJQsqaUBKTNV-1" vertex="1">
                    <mxGeometry x="-573" y="1019.5" width="193" height="216" as="geometry"/>
                </mxCell>
                <mxCell id="6ryFZqyBRYJDQLr4FPov-1" value="_id : str &amp; unique" style="text;strokeColor=none;fillColor=none;align=left;verticalAlign=top;spacingLeft=4;spacingRight=4;overflow=hidden;rotatable=0;points=[[0,0.5],[1,0.5]];portConstraint=eastwest;" parent="6ryFZqyBRYJDQLr4FPov-0" vertex="1">
                    <mxGeometry y="26" width="193" height="26" as="geometry"/>
                </mxCell>
                <mxCell id="6ryFZqyBRYJDQLr4FPov-4" value="till : int &amp; notnone" style="text;strokeColor=none;fillColor=none;align=left;verticalAlign=top;spacingLeft=4;spacingRight=4;overflow=hidden;rotatable=0;points=[[0,0.5],[1,0.5]];portConstraint=eastwest;" parent="6ryFZqyBRYJDQLr4FPov-0" vertex="1">
                    <mxGeometry y="52" width="193" height="26" as="geometry"/>
                </mxCell>
                <mxCell id="6ryFZqyBRYJDQLr4FPov-5" value="participant_id : (FK) str &amp; notnone" style="text;align=left;verticalAlign=top;spacingLeft=4;spacingRight=4;overflow=hidden;rotatable=0;points=[[0,0.5],[1,0.5]];portConstraint=eastwest;" parent="6ryFZqyBRYJDQLr4FPov-0" vertex="1">
                    <mxGeometry y="78" width="193" height="26" as="geometry"/>
                </mxCell>
                <mxCell id="6ryFZqyBRYJDQLr4FPov-6" value="ip : str &amp; notnone" style="text;strokeColor=none;fillColor=none;align=left;verticalAlign=top;spacingLeft=4;spacingRight=4;overflow=hidden;rotatable=0;points=[[0,0.5],[1,0.5]];portConstraint=eastwest;" parent="6ryFZqyBRYJDQLr4FPov-0" vertex="1">
                    <mxGeometry y="104" width="193" height="26" as="geometry"/>
                </mxCell>
                <mxCell id="dF33lPYcqgTTw5QCk_FV-0" value="complete : bool &amp; notnone" style="text;align=left;verticalAlign=top;spacingLeft=4;spacingRight=4;overflow=hidden;rotatable=0;points=[[0,0.5],[1,0.5]];portConstraint=eastwest;" parent="6ryFZqyBRYJDQLr4FPov-0" vertex="1">
                    <mxGeometry y="130" width="193" height="26" as="geometry"/>
                </mxCell>
                <mxCell id="6ryFZqyBRYJDQLr4FPov-2" value="" style="line;strokeWidth=1;fillColor=none;align=left;verticalAlign=middle;spacingTop=-1;spacingLeft=3;spacingRight=3;rotatable=0;labelPosition=right;points=[];portConstraint=eastwest;" parent="6ryFZqyBRYJDQLr4FPov-0" vertex="1">
                    <mxGeometry y="156" width="193" height="8" as="geometry"/>
                </mxCell>
                <mxCell id="6ryFZqyBRYJDQLr4FPov-3" value="admin() : bool" style="text;align=left;verticalAlign=top;spacingLeft=4;spacingRight=4;overflow=hidden;rotatable=0;points=[[0,0.5],[1,0.5]];portConstraint=eastwest;" parent="6ryFZqyBRYJDQLr4FPov-0" vertex="1">
                    <mxGeometry y="164" width="193" height="26" as="geometry"/>
                </mxCell>
                <mxCell id="7EMprM0GJvQtwsCLq2fa-0" value="delete_others() : None" style="text;align=left;verticalAlign=top;spacingLeft=4;spacingRight=4;overflow=hidden;rotatable=0;points=[[0,0.5],[1,0.5]];portConstraint=eastwest;" parent="6ryFZqyBRYJDQLr4FPov-0" vertex="1">
                    <mxGeometry y="190" width="193" height="26" as="geometry"/>
                </mxCell>
                <mxCell id="6ryFZqyBRYJDQLr4FPov-9" style="rounded=0;orthogonalLoop=1;jettySize=auto;html=1;exitX=1;exitY=0.5;exitDx=0;exitDy=0;dashed=1;fillColor=#fff2cc;strokeColor=#d6b656;endArrow=none;endFill=0;entryX=0;entryY=0.5;entryDx=0;entryDy=0;" parent="WIyWlLk6GJQsqaUBKTNV-1" source="6ryFZqyBRYJDQLr4FPov-7" target="6ryFZqyBRYJDQLr4FPov-6" edge="1">
                    <mxGeometry relative="1" as="geometry"/>
                </mxCell>
                <mxCell id="6ryFZqyBRYJDQLr4FPov-7" value="ip of station, that&lt;br&gt;created he session.&lt;br&gt;A session_id and station&lt;br&gt;need to match to be valid" style="rounded=0;whiteSpace=wrap;html=1;autosize=1;fillColor=#fff2cc;strokeColor=#d6b656;dashed=1;align=left;verticalAlign=middle;horizontal=1;labelPosition=center;verticalLabelPosition=middle;" parent="WIyWlLk6GJQsqaUBKTNV-1" vertex="1">
                    <mxGeometry x="-780" y="1064.5" width="150" height="60" as="geometry"/>
                </mxCell>
                <mxCell id="6ryFZqyBRYJDQLr4FPov-8" style="edgeStyle=orthogonalEdgeStyle;rounded=0;orthogonalLoop=1;jettySize=auto;html=1;" parent="WIyWlLk6GJQsqaUBKTNV-1" source="gVJZ379J9d6tVCcwHyOa-55" target="6ryFZqyBRYJDQLr4FPov-5" edge="1">
                    <mxGeometry relative="1" as="geometry"/>
                </mxCell>
                <mxCell id="6ryFZqyBRYJDQLr4FPov-11" style="edgeStyle=none;rounded=0;orthogonalLoop=1;jettySize=auto;html=1;exitX=1;exitY=0.5;exitDx=0;exitDy=0;entryX=0;entryY=0.5;entryDx=0;entryDy=0;dashed=1;endArrow=none;endFill=0;fillColor=#fff2cc;strokeColor=#d6b656;" parent="WIyWlLk6GJQsqaUBKTNV-1" source="6ryFZqyBRYJDQLr4FPov-10" target="6ryFZqyBRYJDQLr4FPov-3" edge="1">
                    <mxGeometry relative="1" as="geometry"/>
                </mxCell>
                <mxCell id="6ryFZqyBRYJDQLr4FPov-10" value="short-cut to Sessions &lt;br&gt;Participant admin parameter" style="rounded=0;whiteSpace=wrap;html=1;autosize=1;fillColor=#fff2cc;strokeColor=#d6b656;dashed=1;align=left;verticalAlign=middle;horizontal=1;labelPosition=center;verticalLabelPosition=middle;" parent="WIyWlLk6GJQsqaUBKTNV-1" vertex="1">
                    <mxGeometry x="-800" y="1149.5" width="170" height="30" as="geometry"/>
                </mxCell>
                <mxCell id="6ryFZqyBRYJDQLr4FPov-13" style="edgeStyle=none;rounded=0;orthogonalLoop=1;jettySize=auto;html=1;exitX=1;exitY=0.5;exitDx=0;exitDy=0;entryX=0;entryY=0.5;entryDx=0;entryDy=0;dashed=1;endArrow=none;endFill=0;fillColor=#fff2cc;strokeColor=#d6b656;" parent="WIyWlLk6GJQsqaUBKTNV-1" source="6ryFZqyBRYJDQLr4FPov-12" target="gVJZ379J9d6tVCcwHyOa-10" edge="1">
                    <mxGeometry relative="1" as="geometry"/>
                </mxCell>
                <mxCell id="6ryFZqyBRYJDQLr4FPov-12" value="returns if the corrensponding &lt;br&gt;hardware is reachable" style="rounded=0;whiteSpace=wrap;html=1;autosize=1;fillColor=#fff2cc;strokeColor=#d6b656;dashed=1;align=left;verticalAlign=middle;horizontal=1;labelPosition=center;verticalLabelPosition=middle;" parent="WIyWlLk6GJQsqaUBKTNV-1" vertex="1">
                    <mxGeometry x="-80" y="816" width="170" height="30" as="geometry"/>
                </mxCell>
                <mxCell id="owBBHlwj1ZQuICMANocE-1" style="rounded=0;orthogonalLoop=1;jettySize=auto;html=1;exitX=0;exitY=0.5;exitDx=0;exitDy=0;dashed=1;endArrow=none;endFill=0;fillColor=#fff2cc;strokeColor=#d6b656;entryX=1;entryY=0.5;entryDx=0;entryDy=0;" parent="WIyWlLk6GJQsqaUBKTNV-1" source="owBBHlwj1ZQuICMANocE-0" target="gVJZ379J9d6tVCcwHyOa-38" edge="1">
                    <mxGeometry relative="1" as="geometry"/>
                </mxCell>
                <mxCell id="owBBHlwj1ZQuICMANocE-2" style="edgeStyle=none;rounded=0;orthogonalLoop=1;jettySize=auto;html=1;exitX=0;exitY=0.5;exitDx=0;exitDy=0;entryX=1;entryY=0.5;entryDx=0;entryDy=0;dashed=1;endArrow=none;endFill=0;fillColor=#fff2cc;strokeColor=#d6b656;" parent="WIyWlLk6GJQsqaUBKTNV-1" source="owBBHlwj1ZQuICMANocE-0" target="gVJZ379J9d6tVCcwHyOa-39" edge="1">
                    <mxGeometry relative="1" as="geometry"/>
                </mxCell>
                <mxCell id="owBBHlwj1ZQuICMANocE-0" value="can't overlap with other IpPools" style="rounded=0;whiteSpace=wrap;html=1;autosize=1;fillColor=#fff2cc;strokeColor=#d6b656;dashed=1;align=left;verticalAlign=middle;horizontal=1;labelPosition=center;verticalLabelPosition=middle;" parent="WIyWlLk6GJQsqaUBKTNV-1" vertex="1">
                    <mxGeometry x="860" y="1197" width="180" height="20" as="geometry"/>
                </mxCell>
                <mxCell id="owBBHlwj1ZQuICMANocE-4" style="edgeStyle=none;rounded=0;orthogonalLoop=1;jettySize=auto;html=1;exitX=0;exitY=0.5;exitDx=0;exitDy=0;entryX=1;entryY=0.5;entryDx=0;entryDy=0;dashed=1;endArrow=none;endFill=0;fillColor=#fff2cc;strokeColor=#d6b656;" parent="WIyWlLk6GJQsqaUBKTNV-1" source="owBBHlwj1ZQuICMANocE-3" target="vAM5PY0zjY4WqJqc9oYO-8" edge="1">
                    <mxGeometry relative="1" as="geometry"/>
                </mxCell>
                <mxCell id="owBBHlwj1ZQuICMANocE-3" value="a IpPool is only &lt;br&gt;allowed on one&lt;br&gt;table (unique)" style="rounded=0;whiteSpace=wrap;html=1;autosize=1;fillColor=#fff2cc;strokeColor=#d6b656;dashed=1;align=left;verticalAlign=middle;horizontal=1;labelPosition=center;verticalLabelPosition=middle;" parent="WIyWlLk6GJQsqaUBKTNV-1" vertex="1">
                    <mxGeometry x="620" y="869" width="100" height="50" as="geometry"/>
                </mxCell>
                <mxCell id="owBBHlwj1ZQuICMANocE-6" style="edgeStyle=none;rounded=0;orthogonalLoop=1;jettySize=auto;html=1;exitX=0;exitY=0.5;exitDx=0;exitDy=0;entryX=1;entryY=0.5;entryDx=0;entryDy=0;dashed=1;endArrow=none;endFill=0;fillColor=#fff2cc;strokeColor=#d6b656;" parent="WIyWlLk6GJQsqaUBKTNV-1" source="owBBHlwj1ZQuICMANocE-5" target="vAM5PY0zjY4WqJqc9oYO-8" edge="1">
                    <mxGeometry relative="1" as="geometry"/>
                </mxCell>
                <mxCell id="vAM5PY0zjY4WqJqc9oYO-9" style="edgeStyle=none;rounded=0;orthogonalLoop=1;jettySize=auto;html=1;exitX=0;exitY=0.5;exitDx=0;exitDy=0;entryX=1;entryY=0.5;entryDx=0;entryDy=0;dashed=1;endArrow=none;endFill=0;fillColor=#fff2cc;strokeColor=#d6b656;" parent="WIyWlLk6GJQsqaUBKTNV-1" source="owBBHlwj1ZQuICMANocE-5" target="gVJZ379J9d6tVCcwHyOa-29" edge="1">
                    <mxGeometry relative="1" as="geometry"/>
                </mxCell>
                <mxCell id="owBBHlwj1ZQuICMANocE-5" value="IpPool's VLAN needs&lt;br&gt;to be of Purpose&lt;br&gt;0 (play/seats)" style="rounded=0;whiteSpace=wrap;html=1;autosize=1;fillColor=#fff2cc;strokeColor=#d6b656;dashed=1;align=left;verticalAlign=middle;horizontal=1;labelPosition=center;verticalLabelPosition=middle;" parent="WIyWlLk6GJQsqaUBKTNV-1" vertex="1">
                    <mxGeometry x="620" y="949" width="130" height="50" as="geometry"/>
                </mxCell>
                <mxCell id="owBBHlwj1ZQuICMANocE-8" style="edgeStyle=none;rounded=0;orthogonalLoop=1;jettySize=auto;html=1;exitX=1;exitY=0.5;exitDx=0;exitDy=0;entryX=0;entryY=0.5;entryDx=0;entryDy=0;dashed=1;endArrow=none;endFill=0;fillColor=#fff2cc;strokeColor=#d6b656;" parent="WIyWlLk6GJQsqaUBKTNV-1" source="owBBHlwj1ZQuICMANocE-7" target="gVJZ379J9d6tVCcwHyOa-15" edge="1">
                    <mxGeometry relative="1" as="geometry"/>
                </mxCell>
                <mxCell id="owBBHlwj1ZQuICMANocE-7" value="a VLAN is only allowed&lt;br&gt;on one Switch" style="rounded=0;whiteSpace=wrap;html=1;autosize=1;fillColor=#fff2cc;strokeColor=#d6b656;dashed=1;align=left;verticalAlign=middle;horizontal=1;labelPosition=center;verticalLabelPosition=middle;" parent="WIyWlLk6GJQsqaUBKTNV-1" vertex="1">
                    <mxGeometry x="-50" y="752" width="140" height="30" as="geometry"/>
                </mxCell>
                <mxCell id="owBBHlwj1ZQuICMANocE-10" style="edgeStyle=none;rounded=0;orthogonalLoop=1;jettySize=auto;html=1;exitX=1;exitY=0.5;exitDx=0;exitDy=0;entryX=0;entryY=0.5;entryDx=0;entryDy=0;dashed=1;endArrow=none;endFill=0;fillColor=#fff2cc;strokeColor=#d6b656;" parent="WIyWlLk6GJQsqaUBKTNV-1" source="owBBHlwj1ZQuICMANocE-9" target="gVJZ379J9d6tVCcwHyOa-15" edge="1">
                    <mxGeometry relative="1" as="geometry"/>
                </mxCell>
                <mxCell id="owBBHlwj1ZQuICMANocE-9" value="if switch purpose is 1 or 2&lt;br&gt;the switch needs onboarding_vlan_id&lt;br&gt;if purpose is 0&lt;br&gt;onboarding_vlan_id gets set to None" style="rounded=0;whiteSpace=wrap;html=1;autosize=1;fillColor=#fff2cc;strokeColor=#d6b656;dashed=1;align=left;verticalAlign=middle;horizontal=1;labelPosition=center;verticalLabelPosition=middle;" parent="WIyWlLk6GJQsqaUBKTNV-1" vertex="1">
                    <mxGeometry x="-120" y="673" width="210" height="60" as="geometry"/>
                </mxCell>
                <mxCell id="SF1Bi-aYHZgsEsrIOj6g-1" style="rounded=0;orthogonalLoop=1;jettySize=auto;html=1;exitX=0;exitY=0.5;exitDx=0;exitDy=0;entryX=1;entryY=0.5;entryDx=0;entryDy=0;dashed=1;endArrow=none;endFill=0;fillColor=#fff2cc;strokeColor=#d6b656;" parent="WIyWlLk6GJQsqaUBKTNV-1" source="SF1Bi-aYHZgsEsrIOj6g-0" target="gVJZ379J9d6tVCcwHyOa-37" edge="1">
                    <mxGeometry relative="1" as="geometry"/>
                </mxCell>
                <mxCell id="SF1Bi-aYHZgsEsrIOj6g-0" value="in CIDR notation&lt;br&gt;valid range is 8 to 30" style="rounded=0;whiteSpace=wrap;html=1;autosize=1;fillColor=#fff2cc;strokeColor=#d6b656;dashed=1;align=left;verticalAlign=middle;horizontal=1;labelPosition=center;verticalLabelPosition=middle;" parent="WIyWlLk6GJQsqaUBKTNV-1" vertex="1">
                    <mxGeometry x="860" y="1028" width="130" height="30" as="geometry"/>
                </mxCell>
                <mxCell id="SF1Bi-aYHZgsEsrIOj6g-3" style="edgeStyle=none;rounded=0;orthogonalLoop=1;jettySize=auto;html=1;exitX=0;exitY=0.5;exitDx=0;exitDy=0;entryX=1;entryY=0.5;entryDx=0;entryDy=0;dashed=1;endArrow=none;endFill=0;fillColor=#fff2cc;strokeColor=#d6b656;" parent="WIyWlLk6GJQsqaUBKTNV-1" source="SF1Bi-aYHZgsEsrIOj6g-2" target="gVJZ379J9d6tVCcwHyOa-37" edge="1">
                    <mxGeometry relative="1" as="geometry"/>
                </mxCell>
                <mxCell id="SF1Bi-aYHZgsEsrIOj6g-2" value="should be checked if range&lt;br&gt;is compatible with given mask" style="rounded=0;whiteSpace=wrap;html=1;autosize=1;fillColor=#fff2cc;strokeColor=#d6b656;dashed=1;align=left;verticalAlign=middle;horizontal=1;labelPosition=center;verticalLabelPosition=middle;" parent="WIyWlLk6GJQsqaUBKTNV-1" vertex="1">
                    <mxGeometry x="860" y="1070" width="170" height="30" as="geometry"/>
                </mxCell>
                <mxCell id="1TqEqt4yqF-DsvIg669b-1" style="rounded=0;orthogonalLoop=1;jettySize=auto;html=1;exitX=1;exitY=0.5;exitDx=0;exitDy=0;entryX=0;entryY=0.5;entryDx=0;entryDy=0;dashed=1;endArrow=none;endFill=0;fillColor=#fff2cc;strokeColor=#d6b656;" parent="WIyWlLk6GJQsqaUBKTNV-1" source="1TqEqt4yqF-DsvIg669b-0" target="gVJZ379J9d6tVCcwHyOa-28" edge="1">
                    <mxGeometry relative="1" as="geometry"/>
                </mxCell>
                <mxCell id="1TqEqt4yqF-DsvIg669b-0" value="Switch's purpose&lt;br&gt;needs to be 1 or 2" style="rounded=0;whiteSpace=wrap;html=1;autosize=1;fillColor=#fff2cc;strokeColor=#d6b656;dashed=1;align=left;verticalAlign=middle;horizontal=1;labelPosition=center;verticalLabelPosition=middle;" parent="WIyWlLk6GJQsqaUBKTNV-1" vertex="1">
                    <mxGeometry x="150" y="869" width="110" height="30" as="geometry"/>
                </mxCell>
                <mxCell id="vgT_ItjdJagalke6hvVx-1" style="rounded=0;orthogonalLoop=1;jettySize=auto;html=1;exitX=0;exitY=0.5;exitDx=0;exitDy=0;entryX=1;entryY=0.5;entryDx=0;entryDy=0;dashed=1;endArrow=none;endFill=0;fillColor=#fff2cc;strokeColor=#d6b656;" parent="WIyWlLk6GJQsqaUBKTNV-1" source="vgT_ItjdJagalke6hvVx-0" target="gVJZ379J9d6tVCcwHyOa-51" edge="1">
                    <mxGeometry relative="1" as="geometry"/>
                </mxCell>
                <mxCell id="vgT_ItjdJagalke6hvVx-0" value="needs to be&lt;br&gt;unique per Table" style="rounded=0;whiteSpace=wrap;html=1;autosize=1;fillColor=#fff2cc;strokeColor=#d6b656;dashed=1;align=left;verticalAlign=middle;horizontal=1;labelPosition=center;verticalLabelPosition=middle;" parent="WIyWlLk6GJQsqaUBKTNV-1" vertex="1">
                    <mxGeometry x="390" y="1125" width="100" height="30" as="geometry"/>
                </mxCell>
                <mxCell id="vgT_ItjdJagalke6hvVx-3" style="edgeStyle=none;rounded=0;orthogonalLoop=1;jettySize=auto;html=1;exitX=1;exitY=0.5;exitDx=0;exitDy=0;entryX=0;entryY=0.5;entryDx=0;entryDy=0;dashed=1;endArrow=none;endFill=0;fillColor=#fff2cc;strokeColor=#d6b656;" parent="WIyWlLk6GJQsqaUBKTNV-1" source="vgT_ItjdJagalke6hvVx-2" target="gVJZ379J9d6tVCcwHyOa-26" edge="1">
                    <mxGeometry relative="1" as="geometry"/>
                </mxCell>
                <mxCell id="vgT_ItjdJagalke6hvVx-2" value="needs to be&lt;br&gt;positive or 0" style="rounded=0;whiteSpace=wrap;html=1;autosize=1;fillColor=#fff2cc;strokeColor=#d6b656;dashed=1;align=left;verticalAlign=middle;horizontal=1;labelPosition=center;verticalLabelPosition=middle;" parent="WIyWlLk6GJQsqaUBKTNV-1" vertex="1">
                    <mxGeometry x="180" y="830" width="80" height="30" as="geometry"/>
                </mxCell>
                <mxCell id="vgT_ItjdJagalke6hvVx-5" style="edgeStyle=none;rounded=0;orthogonalLoop=1;jettySize=auto;html=1;exitX=0;exitY=0.5;exitDx=0;exitDy=0;entryX=1;entryY=0.5;entryDx=0;entryDy=0;dashed=1;endArrow=none;endFill=0;fillColor=#fff2cc;strokeColor=#d6b656;" parent="WIyWlLk6GJQsqaUBKTNV-1" source="vgT_ItjdJagalke6hvVx-4" target="gVJZ379J9d6tVCcwHyOa-51" edge="1">
                    <mxGeometry relative="1" as="geometry"/>
                </mxCell>
                <mxCell id="vgT_ItjdJagalke6hvVx-4" value="needs to be&lt;br&gt;positive and not 0" style="rounded=0;whiteSpace=wrap;html=1;autosize=1;fillColor=#fff2cc;strokeColor=#d6b656;dashed=1;align=left;verticalAlign=middle;horizontal=1;labelPosition=center;verticalLabelPosition=middle;" parent="WIyWlLk6GJQsqaUBKTNV-1" vertex="1">
                    <mxGeometry x="390" y="1175" width="110" height="30" as="geometry"/>
                </mxCell>
                <mxCell id="vAM5PY0zjY4WqJqc9oYO-1" style="rounded=0;orthogonalLoop=1;jettySize=auto;html=1;exitX=1;exitY=0.5;exitDx=0;exitDy=0;entryX=0;entryY=0.5;entryDx=0;entryDy=0;dashed=1;endArrow=none;endFill=0;fillColor=#fff2cc;strokeColor=#d6b656;" parent="WIyWlLk6GJQsqaUBKTNV-1" source="vAM5PY0zjY4WqJqc9oYO-0" target="gVJZ379J9d6tVCcwHyOa-73" edge="1">
                    <mxGeometry relative="1" as="geometry"/>
                </mxCell>
                <mxCell id="vAM5PY0zjY4WqJqc9oYO-2" style="edgeStyle=none;rounded=0;orthogonalLoop=1;jettySize=auto;html=1;exitX=1;exitY=0.5;exitDx=0;exitDy=0;entryX=0;entryY=0.5;entryDx=0;entryDy=0;dashed=1;endArrow=none;endFill=0;fillColor=#fff2cc;strokeColor=#d6b656;" parent="WIyWlLk6GJQsqaUBKTNV-1" source="vAM5PY0zjY4WqJqc9oYO-0" target="gVJZ379J9d6tVCcwHyOa-74" edge="1">
                    <mxGeometry relative="1" as="geometry"/>
                </mxCell>
                <mxCell id="vAM5PY0zjY4WqJqc9oYO-3" style="edgeStyle=none;rounded=0;orthogonalLoop=1;jettySize=auto;html=1;exitX=1;exitY=0.5;exitDx=0;exitDy=0;entryX=0;entryY=0.5;entryDx=0;entryDy=0;dashed=1;endArrow=none;endFill=0;fillColor=#fff2cc;strokeColor=#d6b656;" parent="WIyWlLk6GJQsqaUBKTNV-1" source="vAM5PY0zjY4WqJqc9oYO-0" target="gVJZ379J9d6tVCcwHyOa-75" edge="1">
                    <mxGeometry relative="1" as="geometry"/>
                </mxCell>
                <mxCell id="vAM5PY0zjY4WqJqc9oYO-0" value="if seat_id is not None&lt;br&gt;these are set based on seat&lt;br&gt;overwriting is not possible" style="rounded=0;whiteSpace=wrap;html=1;autosize=1;fillColor=#fff2cc;strokeColor=#d6b656;dashed=1;align=left;verticalAlign=middle;horizontal=1;labelPosition=center;verticalLabelPosition=middle;" parent="WIyWlLk6GJQsqaUBKTNV-1" vertex="1">
                    <mxGeometry x="-380" y="1302.5" width="160" height="50" as="geometry"/>
                </mxCell>
                <mxCell id="vAM5PY0zjY4WqJqc9oYO-5" style="edgeStyle=none;rounded=0;orthogonalLoop=1;jettySize=auto;html=1;exitX=1;exitY=0.5;exitDx=0;exitDy=0;entryX=0;entryY=0.5;entryDx=0;entryDy=0;dashed=1;endArrow=none;endFill=0;fillColor=#fff2cc;strokeColor=#d6b656;" parent="WIyWlLk6GJQsqaUBKTNV-1" source="vAM5PY0zjY4WqJqc9oYO-4" target="gVJZ379J9d6tVCcwHyOa-75" edge="1">
                    <mxGeometry relative="1" as="geometry"/>
                </mxCell>
                <mxCell id="vAM5PY0zjY4WqJqc9oYO-4" value="requires ip_pool&lt;br&gt;needs to fall into ip_pool range&lt;br&gt;needs to be unique" style="rounded=0;whiteSpace=wrap;html=1;autosize=1;fillColor=#fff2cc;strokeColor=#d6b656;dashed=1;align=left;verticalAlign=middle;horizontal=1;labelPosition=center;verticalLabelPosition=middle;" parent="WIyWlLk6GJQsqaUBKTNV-1" vertex="1">
                    <mxGeometry x="-400" y="1379.5" width="180" height="50" as="geometry"/>
                </mxCell>
                <mxCell id="vAM5PY0zjY4WqJqc9oYO-7" style="edgeStyle=none;rounded=0;orthogonalLoop=1;jettySize=auto;html=1;exitX=1;exitY=0.5;exitDx=0;exitDy=0;entryX=0;entryY=0.5;entryDx=0;entryDy=0;dashed=1;endArrow=none;endFill=0;fillColor=#fff2cc;strokeColor=#d6b656;" parent="WIyWlLk6GJQsqaUBKTNV-1" source="vAM5PY0zjY4WqJqc9oYO-6" target="gVJZ379J9d6tVCcwHyOa-72" edge="1">
                    <mxGeometry relative="1" as="geometry"/>
                </mxCell>
                <mxCell id="vAM5PY0zjY4WqJqc9oYO-6" value="determines the main&lt;br&gt;device of participant" style="rounded=0;whiteSpace=wrap;html=1;autosize=1;fillColor=#fff2cc;strokeColor=#d6b656;dashed=1;align=left;verticalAlign=middle;horizontal=1;labelPosition=center;verticalLabelPosition=middle;" parent="WIyWlLk6GJQsqaUBKTNV-1" vertex="1">
                    <mxGeometry x="-340" y="1242.5" width="120" height="30" as="geometry"/>
                </mxCell>
                <mxCell id="vAM5PY0zjY4WqJqc9oYO-13" style="edgeStyle=none;rounded=0;orthogonalLoop=1;jettySize=auto;html=1;exitX=1;exitY=0.5;exitDx=0;exitDy=0;entryX=0;entryY=0.5;entryDx=0;entryDy=0;dashed=1;endArrow=none;endFill=0;fillColor=#fff2cc;strokeColor=#d6b656;" parent="WIyWlLk6GJQsqaUBKTNV-1" source="vAM5PY0zjY4WqJqc9oYO-10" target="vAM5PY0zjY4WqJqc9oYO-8" edge="1">
                    <mxGeometry relative="1" as="geometry"/>
                </mxCell>
                <mxCell id="vAM5PY0zjY4WqJqc9oYO-10" value="from this pool the seat IP's are taken&lt;br&gt;can't be used as add_IpPool&lt;br&gt;(on any table) at the same time" style="rounded=0;whiteSpace=wrap;html=1;autosize=1;fillColor=#fff2cc;strokeColor=#d6b656;dashed=1;align=left;verticalAlign=middle;horizontal=1;labelPosition=center;verticalLabelPosition=middle;" parent="WIyWlLk6GJQsqaUBKTNV-1" vertex="1">
                    <mxGeometry x="50" y="909" width="210" height="50" as="geometry"/>
                </mxCell>
                <mxCell id="vAM5PY0zjY4WqJqc9oYO-12" style="edgeStyle=none;rounded=0;orthogonalLoop=1;jettySize=auto;html=1;exitX=1;exitY=0.5;exitDx=0;exitDy=0;entryX=0;entryY=0.5;entryDx=0;entryDy=0;dashed=1;endArrow=none;endFill=0;fillColor=#fff2cc;strokeColor=#d6b656;" parent="WIyWlLk6GJQsqaUBKTNV-1" source="vAM5PY0zjY4WqJqc9oYO-11" target="gVJZ379J9d6tVCcwHyOa-29" edge="1">
                    <mxGeometry relative="1" as="geometry"/>
                </mxCell>
                <mxCell id="vAM5PY0zjY4WqJqc9oYO-11" value="from this pool the IP's for &lt;br&gt;additional Participant Devices&lt;br&gt;are taken. Can be used on&lt;br&gt;multiple Tables" style="rounded=0;whiteSpace=wrap;html=1;autosize=1;fillColor=#fff2cc;strokeColor=#d6b656;dashed=1;align=left;verticalAlign=middle;horizontal=1;labelPosition=center;verticalLabelPosition=middle;" parent="WIyWlLk6GJQsqaUBKTNV-1" vertex="1">
                    <mxGeometry x="90" y="965" width="170" height="60" as="geometry"/>
                </mxCell>
                <mxCell id="vAM5PY0zjY4WqJqc9oYO-15" style="edgeStyle=none;rounded=0;orthogonalLoop=1;jettySize=auto;html=1;exitX=0;exitY=0.5;exitDx=0;exitDy=0;entryX=1;entryY=0.5;entryDx=0;entryDy=0;dashed=1;endArrow=none;endFill=0;fillColor=#fff2cc;strokeColor=#d6b656;" parent="WIyWlLk6GJQsqaUBKTNV-1" source="vAM5PY0zjY4WqJqc9oYO-14" target="gVJZ379J9d6tVCcwHyOa-74" edge="1">
                    <mxGeometry relative="1" as="geometry"/>
                </mxCell>
                <mxCell id="vAM5PY0zjY4WqJqc9oYO-14" value="if Participant is set the IpPool&lt;br&gt;is taken from Participant's&lt;br&gt;Table add_IpPool (unless Seat&lt;br&gt;is set, than Seat's Table &lt;br&gt;seat_IpPool is taken)" style="rounded=0;whiteSpace=wrap;html=1;autosize=1;fillColor=#fff2cc;strokeColor=#d6b656;dashed=1;align=left;verticalAlign=middle;horizontal=1;labelPosition=center;verticalLabelPosition=middle;" parent="WIyWlLk6GJQsqaUBKTNV-1" vertex="1">
                    <mxGeometry x="65" y="1424.5" width="180" height="80" as="geometry"/>
                </mxCell>
                <mxCell id="c7A_0tNnYi_CNuIfui3b-1" style="rounded=0;orthogonalLoop=1;jettySize=auto;html=1;exitX=1;exitY=0.5;exitDx=0;exitDy=0;entryX=0;entryY=0.5;entryDx=0;entryDy=0;dashed=1;endArrow=none;endFill=0;fillColor=#fff2cc;strokeColor=#d6b656;" parent="WIyWlLk6GJQsqaUBKTNV-1" source="c7A_0tNnYi_CNuIfui3b-0" target="gVJZ379J9d6tVCcwHyOa-75" edge="1">
                    <mxGeometry relative="1" as="geometry"/>
                </mxCell>
                <mxCell id="c7A_0tNnYi_CNuIfui3b-0" value="if IpPool is set and IP is None,&lt;br&gt;the first available IP in IpPool is assigned&lt;br&gt;unless Seat is set,&lt;br&gt;in this case the Seat's IP is assigned" style="rounded=0;whiteSpace=wrap;html=1;autosize=1;fillColor=#fff2cc;strokeColor=#d6b656;dashed=1;align=left;verticalAlign=middle;horizontal=1;labelPosition=center;verticalLabelPosition=middle;" parent="WIyWlLk6GJQsqaUBKTNV-1" vertex="1">
                    <mxGeometry x="-450" y="1459.5" width="230" height="60" as="geometry"/>
                </mxCell>
                <mxCell id="c7A_0tNnYi_CNuIfui3b-3" style="edgeStyle=none;rounded=0;orthogonalLoop=1;jettySize=auto;html=1;exitX=0;exitY=0.5;exitDx=0;exitDy=0;entryX=1;entryY=0.5;entryDx=0;entryDy=0;dashed=1;endArrow=none;endFill=0;fillColor=#fff2cc;strokeColor=#d6b656;" parent="WIyWlLk6GJQsqaUBKTNV-1" source="c7A_0tNnYi_CNuIfui3b-2" target="gVJZ379J9d6tVCcwHyOa-74" edge="1">
                    <mxGeometry relative="1" as="geometry"/>
                </mxCell>
                <mxCell id="c7A_0tNnYi_CNuIfui3b-2" value="if Participant is not None,&lt;br&gt;IpPool's VLAN Purpose needs to be 0 (play)&lt;br&gt;otherwise IpPool's VLAN Purpose can be anything" style="rounded=0;whiteSpace=wrap;html=1;autosize=1;fillColor=#fff2cc;strokeColor=#d6b656;dashed=1;align=left;verticalAlign=middle;horizontal=1;labelPosition=center;verticalLabelPosition=middle;" parent="WIyWlLk6GJQsqaUBKTNV-1" vertex="1">
                    <mxGeometry x="65" y="1522.5" width="280" height="50" as="geometry"/>
                </mxCell>
                <mxCell id="4-7WxJPBqtyLSTa9ViAM-1" style="rounded=0;orthogonalLoop=1;jettySize=auto;html=1;exitX=1;exitY=0.5;exitDx=0;exitDy=0;dashed=1;endArrow=none;endFill=0;fillColor=#fff2cc;strokeColor=#d6b656;entryX=0;entryY=0.5;entryDx=0;entryDy=0;" parent="WIyWlLk6GJQsqaUBKTNV-1" source="4-7WxJPBqtyLSTa9ViAM-0" target="6ryFZqyBRYJDQLr4FPov-4" edge="1">
                    <mxGeometry relative="1" as="geometry"/>
                </mxCell>
                <mxCell id="4-7WxJPBqtyLSTa9ViAM-0" value="as timestamp, needs&lt;br&gt;to be in the future" style="rounded=0;whiteSpace=wrap;html=1;autosize=1;fillColor=#fff2cc;strokeColor=#d6b656;dashed=1;align=left;verticalAlign=middle;horizontal=1;labelPosition=center;verticalLabelPosition=middle;" parent="WIyWlLk6GJQsqaUBKTNV-1" vertex="1">
                    <mxGeometry x="-760" y="1008.5" width="130" height="30" as="geometry"/>
                </mxCell>
                <mxCell id="7EMprM0GJvQtwsCLq2fa-2" style="rounded=0;orthogonalLoop=1;jettySize=auto;html=1;exitX=1;exitY=0.5;exitDx=0;exitDy=0;entryX=0;entryY=0.5;entryDx=0;entryDy=0;dashed=1;endArrow=none;endFill=0;fillColor=#fff2cc;strokeColor=#d6b656;" parent="WIyWlLk6GJQsqaUBKTNV-1" source="7EMprM0GJvQtwsCLq2fa-1" target="7EMprM0GJvQtwsCLq2fa-0" edge="1">
                    <mxGeometry relative="1" as="geometry"/>
                </mxCell>
                <mxCell id="7EMprM0GJvQtwsCLq2fa-1" value="deletes all other sessions&lt;br&gt;for participant_id" style="rounded=0;whiteSpace=wrap;html=1;autosize=1;fillColor=#fff2cc;strokeColor=#d6b656;dashed=1;align=left;verticalAlign=middle;horizontal=1;labelPosition=center;verticalLabelPosition=middle;" parent="WIyWlLk6GJQsqaUBKTNV-1" vertex="1">
                    <mxGeometry x="-780" y="1205.5" width="150" height="30" as="geometry"/>
                </mxCell>
                <mxCell id="irZFAtAyEauwIpYzxJTS-1" style="rounded=0;orthogonalLoop=1;jettySize=auto;html=1;exitX=0;exitY=0.5;exitDx=0;exitDy=0;endArrow=none;endFill=0;dashed=1;fillColor=#fff2cc;strokeColor=#d6b656;entryX=1;entryY=0.5;entryDx=0;entryDy=0;" parent="WIyWlLk6GJQsqaUBKTNV-1" source="irZFAtAyEauwIpYzxJTS-0" target="gVJZ379J9d6tVCcwHyOa-40" edge="1">
                    <mxGeometry relative="1" as="geometry">
                        <mxPoint x="810" y="1020" as="targetPoint"/>
                    </mxGeometry>
                </mxCell>
                <mxCell id="irZFAtAyEauwIpYzxJTS-0" value="blocks deletion of VLAN" style="rounded=0;whiteSpace=wrap;html=1;autosize=1;fillColor=#ffe6cc;strokeColor=#d79b00;dashed=1;align=left;verticalAlign=middle;horizontal=1;labelPosition=center;verticalLabelPosition=middle;" parent="WIyWlLk6GJQsqaUBKTNV-1" vertex="1">
                    <mxGeometry x="860" y="1359.5" width="140" height="20" as="geometry"/>
                </mxCell>
                <mxCell id="irZFAtAyEauwIpYzxJTS-9" style="edgeStyle=none;rounded=0;orthogonalLoop=1;jettySize=auto;html=1;exitX=1;exitY=0.5;exitDx=0;exitDy=0;entryX=0;entryY=0.5;entryDx=0;entryDy=0;dashed=1;endArrow=none;endFill=0;fillColor=#fff2cc;strokeColor=#d6b656;" parent="WIyWlLk6GJQsqaUBKTNV-1" source="irZFAtAyEauwIpYzxJTS-2" target="gVJZ379J9d6tVCcwHyOa-28" edge="1">
                    <mxGeometry relative="1" as="geometry"/>
                </mxCell>
                <mxCell id="irZFAtAyEauwIpYzxJTS-2" value="blocks deletion of Switch" style="rounded=0;whiteSpace=wrap;html=1;autosize=1;fillColor=#ffe6cc;strokeColor=#d79b00;dashed=1;align=left;verticalAlign=middle;horizontal=1;labelPosition=center;verticalLabelPosition=middle;" parent="WIyWlLk6GJQsqaUBKTNV-1" vertex="1">
                    <mxGeometry x="70" y="1050" width="150" height="20" as="geometry"/>
                </mxCell>
                <mxCell id="irZFAtAyEauwIpYzxJTS-5" style="edgeStyle=none;rounded=0;orthogonalLoop=1;jettySize=auto;html=1;exitX=0;exitY=0.5;exitDx=0;exitDy=0;dashed=1;endArrow=none;endFill=0;fillColor=#fff2cc;strokeColor=#d6b656;entryX=1;entryY=0.5;entryDx=0;entryDy=0;" parent="WIyWlLk6GJQsqaUBKTNV-1" source="irZFAtAyEauwIpYzxJTS-4" target="gVJZ379J9d6tVCcwHyOa-53" edge="1">
                    <mxGeometry relative="1" as="geometry">
                        <mxPoint x="450" y="1090" as="targetPoint"/>
                    </mxGeometry>
                </mxCell>
                <mxCell id="irZFAtAyEauwIpYzxJTS-4" value="blocks deletion of Table" style="rounded=0;whiteSpace=wrap;html=1;autosize=1;fillColor=#ffe6cc;strokeColor=#d79b00;dashed=1;align=left;verticalAlign=middle;horizontal=1;labelPosition=center;verticalLabelPosition=middle;" parent="WIyWlLk6GJQsqaUBKTNV-1" vertex="1">
                    <mxGeometry x="390" y="1243" width="140" height="20" as="geometry"/>
                </mxCell>
                <mxCell id="irZFAtAyEauwIpYzxJTS-7" style="edgeStyle=none;rounded=0;orthogonalLoop=1;jettySize=auto;html=1;exitX=0.5;exitY=0;exitDx=0;exitDy=0;dashed=1;endArrow=none;endFill=0;fillColor=#fff2cc;strokeColor=#d6b656;entryX=1;entryY=0.5;entryDx=0;entryDy=0;" parent="WIyWlLk6GJQsqaUBKTNV-1" source="irZFAtAyEauwIpYzxJTS-6" target="6ryFZqyBRYJDQLr4FPov-5" edge="1">
                    <mxGeometry relative="1" as="geometry">
                        <mxPoint x="-210" y="1110" as="targetPoint"/>
                    </mxGeometry>
                </mxCell>
                <mxCell id="irZFAtAyEauwIpYzxJTS-6" value="gets auto deleted&lt;br&gt;on Participant delete" style="rounded=0;whiteSpace=wrap;html=1;autosize=1;fillColor=#ffe6cc;strokeColor=#d79b00;dashed=1;align=left;verticalAlign=middle;horizontal=1;labelPosition=center;verticalLabelPosition=middle;" parent="WIyWlLk6GJQsqaUBKTNV-1" vertex="1">
                    <mxGeometry x="-360" y="1144.5" width="120" height="30" as="geometry"/>
                </mxCell>
                <mxCell id="irZFAtAyEauwIpYzxJTS-10" style="edgeStyle=none;rounded=0;orthogonalLoop=1;jettySize=auto;html=1;exitX=0;exitY=0.5;exitDx=0;exitDy=0;entryX=1;entryY=0.5;entryDx=0;entryDy=0;dashed=1;endArrow=none;endFill=0;fillColor=#fff2cc;strokeColor=#d6b656;" parent="WIyWlLk6GJQsqaUBKTNV-1" source="irZFAtAyEauwIpYzxJTS-8" target="gVJZ379J9d6tVCcwHyOa-29" edge="1">
                    <mxGeometry relative="1" as="geometry"/>
                </mxCell>
                <mxCell id="irZFAtAyEauwIpYzxJTS-11" style="edgeStyle=none;rounded=0;orthogonalLoop=1;jettySize=auto;html=1;exitX=0;exitY=0.5;exitDx=0;exitDy=0;entryX=1;entryY=0.5;entryDx=0;entryDy=0;dashed=1;endArrow=none;endFill=0;fillColor=#fff2cc;strokeColor=#d6b656;" parent="WIyWlLk6GJQsqaUBKTNV-1" source="irZFAtAyEauwIpYzxJTS-8" target="vAM5PY0zjY4WqJqc9oYO-8" edge="1">
                    <mxGeometry relative="1" as="geometry"/>
                </mxCell>
                <mxCell id="irZFAtAyEauwIpYzxJTS-8" value="blocks deletion of IpPool" style="rounded=0;whiteSpace=wrap;html=1;autosize=1;fillColor=#ffe6cc;strokeColor=#d79b00;dashed=1;align=left;verticalAlign=middle;horizontal=1;labelPosition=center;verticalLabelPosition=middle;" parent="WIyWlLk6GJQsqaUBKTNV-1" vertex="1">
                    <mxGeometry x="640" y="1050" width="150" height="20" as="geometry"/>
                </mxCell>
                <mxCell id="617aZDYahMu2Lkk7XnMK-1" style="rounded=0;orthogonalLoop=1;jettySize=auto;html=1;exitX=0;exitY=0.5;exitDx=0;exitDy=0;entryX=1;entryY=0.5;entryDx=0;entryDy=0;dashed=1;fillColor=#fff2cc;strokeColor=#d6b656;endArrow=none;endFill=0;" parent="WIyWlLk6GJQsqaUBKTNV-1" source="617aZDYahMu2Lkk7XnMK-0" target="gVJZ379J9d6tVCcwHyOa-15" edge="1">
                    <mxGeometry relative="1" as="geometry"/>
                </mxCell>
                <mxCell id="617aZDYahMu2Lkk7XnMK-0" value="blocks deletion of VLAN" style="rounded=0;whiteSpace=wrap;html=1;autosize=1;fillColor=#ffe6cc;strokeColor=#d79b00;dashed=1;align=left;verticalAlign=middle;horizontal=1;labelPosition=center;verticalLabelPosition=middle;" parent="WIyWlLk6GJQsqaUBKTNV-1" vertex="1">
                    <mxGeometry x="490" y="586" width="140" height="20" as="geometry"/>
                </mxCell>
                <mxCell id="QCGBZTZM0vFAplF-WJMS-1" style="rounded=0;orthogonalLoop=1;jettySize=auto;html=1;exitX=0;exitY=0.5;exitDx=0;exitDy=0;entryX=1;entryY=0.5;entryDx=0;entryDy=0;dashed=1;endArrow=none;endFill=0;fillColor=#fff2cc;strokeColor=#d6b656;" parent="WIyWlLk6GJQsqaUBKTNV-1" source="QCGBZTZM0vFAplF-WJMS-0" target="gVJZ379J9d6tVCcwHyOa-40" edge="1">
                    <mxGeometry relative="1" as="geometry"/>
                </mxCell>
                <mxCell id="QCGBZTZM0vFAplF-WJMS-0" value="only one IpPool per VLAN with purpose 2 (onboarding) is allowed&lt;br&gt;only one IpPool per VLAN with purpose 1 (mgmt) is allowed" style="rounded=0;whiteSpace=wrap;html=1;autosize=1;fillColor=#fff2cc;strokeColor=#d6b656;dashed=1;align=left;verticalAlign=middle;horizontal=1;labelPosition=center;verticalLabelPosition=middle;" parent="WIyWlLk6GJQsqaUBKTNV-1" vertex="1">
                    <mxGeometry x="860" y="1399.5" width="360" height="30" as="geometry"/>
                </mxCell>
                <mxCell id="9TWkfeMFytIOEXwtAVvO-0" value="Port" style="swimlane;fontStyle=1;align=center;verticalAlign=top;childLayout=stackLayout;horizontal=1;startSize=26;horizontalStack=0;resizeParent=1;resizeParentMax=0;resizeLast=0;collapsible=1;marginBottom=0;" parent="WIyWlLk6GJQsqaUBKTNV-1" vertex="1">
                    <mxGeometry x="510" y="-4" width="270" height="554" as="geometry"/>
                </mxCell>
                <mxCell id="9TWkfeMFytIOEXwtAVvO-1" value="_id : str &amp; unique" style="text;strokeColor=none;fillColor=none;align=left;verticalAlign=top;spacingLeft=4;spacingRight=4;overflow=hidden;rotatable=0;points=[[0,0.5],[1,0.5]];portConstraint=eastwest;" parent="9TWkfeMFytIOEXwtAVvO-0" vertex="1">
                    <mxGeometry y="26" width="270" height="26" as="geometry"/>
                </mxCell>
                <mxCell id="9TWkfeMFytIOEXwtAVvO-2" value="number : int &amp; notnone" style="text;strokeColor=none;fillColor=none;align=left;verticalAlign=top;spacingLeft=4;spacingRight=4;overflow=hidden;rotatable=0;points=[[0,0.5],[1,0.5]];portConstraint=eastwest;" parent="9TWkfeMFytIOEXwtAVvO-0" vertex="1">
                    <mxGeometry y="52" width="270" height="26" as="geometry"/>
                </mxCell>
                <mxCell id="39nEtI6EG8Rg9S1Oo0Wg-4" value="desc : str &amp; notnone" style="text;strokeColor=none;fillColor=none;align=left;verticalAlign=top;spacingLeft=4;spacingRight=4;overflow=hidden;rotatable=0;points=[[0,0.5],[1,0.5]];portConstraint=eastwest;" parent="9TWkfeMFytIOEXwtAVvO-0" vertex="1">
                    <mxGeometry y="78" width="270" height="26" as="geometry"/>
                </mxCell>
                <mxCell id="9TWkfeMFytIOEXwtAVvO-3" value="switch_id : (FK) str &amp; notnone" style="text;strokeColor=none;fillColor=none;align=left;verticalAlign=top;spacingLeft=4;spacingRight=4;overflow=hidden;rotatable=0;points=[[0,0.5],[1,0.5]];portConstraint=eastwest;" parent="9TWkfeMFytIOEXwtAVvO-0" vertex="1">
                    <mxGeometry y="104" width="270" height="26" as="geometry"/>
                </mxCell>
                <mxCell id="9TWkfeMFytIOEXwtAVvO-4" value="participants : bool &amp; notnone" style="text;strokeColor=none;fillColor=none;align=left;verticalAlign=top;spacingLeft=4;spacingRight=4;overflow=hidden;rotatable=0;points=[[0,0.5],[1,0.5]];portConstraint=eastwest;" parent="9TWkfeMFytIOEXwtAVvO-0" vertex="1">
                    <mxGeometry y="130" width="270" height="26" as="geometry"/>
                </mxCell>
                <mxCell id="jtqVzkHbTeXqYUjVCnKF-0" value="switchlink : bool &amp; notnone" style="text;strokeColor=none;fillColor=none;align=left;verticalAlign=top;spacingLeft=4;spacingRight=4;overflow=hidden;rotatable=0;points=[[0,0.5],[1,0.5]];portConstraint=eastwest;" parent="9TWkfeMFytIOEXwtAVvO-0" vertex="1">
                    <mxGeometry y="156" width="270" height="26" as="geometry"/>
                </mxCell>
                <mxCell id="pWaiSDQYKXrZyxfFB7lp-0" value="switchlink_port_id : (FK) str | None" style="text;strokeColor=none;fillColor=none;align=left;verticalAlign=top;spacingLeft=4;spacingRight=4;overflow=hidden;rotatable=0;points=[[0,0.5],[1,0.5]];portConstraint=eastwest;" parent="9TWkfeMFytIOEXwtAVvO-0" vertex="1">
                    <mxGeometry y="182" width="270" height="26" as="geometry"/>
                </mxCell>
                <mxCell id="CZQMxz513B2xW0pSG4-m-0" value="commit_disabled : bool" style="text;strokeColor=none;fillColor=none;align=left;verticalAlign=top;spacingLeft=4;spacingRight=4;overflow=hidden;rotatable=0;points=[[0,0.5],[1,0.5]];portConstraint=eastwest;" parent="9TWkfeMFytIOEXwtAVvO-0" vertex="1">
                    <mxGeometry y="208" width="270" height="26" as="geometry"/>
                </mxCell>
                <mxCell id="8" value="retreat_disabled : bool" style="text;strokeColor=none;fillColor=none;align=left;verticalAlign=top;spacingLeft=4;spacingRight=4;overflow=hidden;rotatable=0;points=[[0,0.5],[1,0.5]];portConstraint=eastwest;" parent="9TWkfeMFytIOEXwtAVvO-0" vertex="1">
                    <mxGeometry y="234" width="270" height="26" as="geometry"/>
                </mxCell>
                <mxCell id="3d2FjKBtex3CsvdyGf3n-0" value="commit_config : dict | None" style="text;strokeColor=none;fillColor=none;align=left;verticalAlign=top;spacingLeft=4;spacingRight=4;overflow=hidden;rotatable=0;points=[[0,0.5],[1,0.5]];portConstraint=eastwest;" parent="9TWkfeMFytIOEXwtAVvO-0" vertex="1">
                    <mxGeometry y="260" width="270" height="26" as="geometry"/>
                </mxCell>
                <mxCell id="9" value="retreat_config : dict | None" style="text;strokeColor=none;fillColor=none;align=left;verticalAlign=top;spacingLeft=4;spacingRight=4;overflow=hidden;rotatable=0;points=[[0,0.5],[1,0.5]];portConstraint=eastwest;" parent="9TWkfeMFytIOEXwtAVvO-0" vertex="1">
                    <mxGeometry y="286" width="270" height="26" as="geometry"/>
                </mxCell>
                <mxCell id="9TWkfeMFytIOEXwtAVvO-7" value="" style="line;strokeWidth=1;fillColor=none;align=left;verticalAlign=middle;spacingTop=-1;spacingLeft=3;spacingRight=3;rotatable=0;labelPosition=right;points=[];portConstraint=eastwest;" parent="9TWkfeMFytIOEXwtAVvO-0" vertex="1">
                    <mxGeometry y="312" width="270" height="8" as="geometry"/>
                </mxCell>
                <mxCell id="ZMA68TP57f_UoP05x5sL-2" value="get_by_number(switch_id, number) : Port | None" style="text;align=left;verticalAlign=top;spacingLeft=4;spacingRight=4;overflow=hidden;rotatable=0;points=[[0,0.5],[1,0.5]];portConstraint=eastwest;" parent="9TWkfeMFytIOEXwtAVvO-0" vertex="1">
                    <mxGeometry y="320" width="270" height="26" as="geometry"/>
                </mxCell>
                <mxCell id="pK78TpodK3IWdm9WEKsF-0" value="get_lpos() : Port | None" style="text;align=left;verticalAlign=top;spacingLeft=4;spacingRight=4;overflow=hidden;rotatable=0;points=[[0,0.5],[1,0.5]];portConstraint=eastwest;" parent="9TWkfeMFytIOEXwtAVvO-0" vertex="1">
                    <mxGeometry y="346" width="270" height="26" as="geometry"/>
                </mxCell>
                <mxCell id="TlBYzH3O6no2ukXJTyvl-0" value="get_switchlinks(string|None) : list(Port)" style="text;align=left;verticalAlign=top;spacingLeft=4;spacingRight=4;overflow=hidden;rotatable=0;points=[[0,0.5],[1,0.5]];portConstraint=eastwest;" parent="9TWkfeMFytIOEXwtAVvO-0" vertex="1">
                    <mxGeometry y="372" width="270" height="26" as="geometry"/>
                </mxCell>
                <mxCell id="9TWkfeMFytIOEXwtAVvO-5" value="vlan_ids() : list" style="text;align=left;verticalAlign=top;spacingLeft=4;spacingRight=4;overflow=hidden;rotatable=0;points=[[0,0.5],[1,0.5]];portConstraint=eastwest;" parent="9TWkfeMFytIOEXwtAVvO-0" vertex="1">
                    <mxGeometry y="398" width="270" height="26" as="geometry"/>
                </mxCell>
                <mxCell id="ZMA68TP57f_UoP05x5sL-3" value="type() : str" style="text;align=left;verticalAlign=top;spacingLeft=4;spacingRight=4;overflow=hidden;rotatable=0;points=[[0,0.5],[1,0.5]];portConstraint=eastwest;" parent="9TWkfeMFytIOEXwtAVvO-0" vertex="1">
                    <mxGeometry y="424" width="270" height="26" as="geometry"/>
                </mxCell>
                <mxCell id="ZMA68TP57f_UoP05x5sL-4" value="enabled() : bool" style="text;align=left;verticalAlign=top;spacingLeft=4;spacingRight=4;overflow=hidden;rotatable=0;points=[[0,0.5],[1,0.5]];portConstraint=eastwest;" parent="9TWkfeMFytIOEXwtAVvO-0" vertex="1">
                    <mxGeometry y="450" width="270" height="26" as="geometry"/>
                </mxCell>
                <mxCell id="ZMA68TP57f_UoP05x5sL-5" value="link() : bool" style="text;align=left;verticalAlign=top;spacingLeft=4;spacingRight=4;overflow=hidden;rotatable=0;points=[[0,0.5],[1,0.5]];portConstraint=eastwest;" parent="9TWkfeMFytIOEXwtAVvO-0" vertex="1">
                    <mxGeometry y="476" width="270" height="26" as="geometry"/>
                </mxCell>
                <mxCell id="ZMA68TP57f_UoP05x5sL-6" value="speed() : str" style="text;align=left;verticalAlign=top;spacingLeft=4;spacingRight=4;overflow=hidden;rotatable=0;points=[[0,0.5],[1,0.5]];portConstraint=eastwest;" parent="9TWkfeMFytIOEXwtAVvO-0" vertex="1">
                    <mxGeometry y="502" width="270" height="26" as="geometry"/>
                </mxCell>
                <mxCell id="zt-Ab97LxBqmS5F2VgE4-0" style="edgeStyle=orthogonalEdgeStyle;rounded=0;orthogonalLoop=1;jettySize=auto;html=1;" parent="9TWkfeMFytIOEXwtAVvO-0" source="9TWkfeMFytIOEXwtAVvO-0" target="pWaiSDQYKXrZyxfFB7lp-0" edge="1">
                    <mxGeometry relative="1" as="geometry"/>
                </mxCell>
                <mxCell id="BRod8EQPQacFUalKpDD5-1" value="scanned_hosts() : list(str)" style="text;align=left;verticalAlign=top;spacingLeft=4;spacingRight=4;overflow=hidden;rotatable=0;points=[[0,0.5],[1,0.5]];portConstraint=eastwest;" parent="9TWkfeMFytIOEXwtAVvO-0" vertex="1">
                    <mxGeometry y="528" width="270" height="26" as="geometry"/>
                </mxCell>
                <mxCell id="9TWkfeMFytIOEXwtAVvO-12" style="rounded=0;orthogonalLoop=1;jettySize=auto;html=1;exitX=0;exitY=0.5;exitDx=0;exitDy=0;fillColor=#fff2cc;strokeColor=#d6b656;dashed=1;endArrow=none;endFill=0;entryX=1;entryY=0.5;entryDx=0;entryDy=0;" parent="WIyWlLk6GJQsqaUBKTNV-1" source="9TWkfeMFytIOEXwtAVvO-11" target="9TWkfeMFytIOEXwtAVvO-2" edge="1">
                    <mxGeometry relative="1" as="geometry"/>
                </mxCell>
                <mxCell id="9TWkfeMFytIOEXwtAVvO-11" value="needs to be&lt;br&gt;unique per Switch" style="rounded=0;whiteSpace=wrap;html=1;autosize=1;fillColor=#fff2cc;strokeColor=#d6b656;dashed=1;align=left;verticalAlign=middle;horizontal=1;labelPosition=center;verticalLabelPosition=middle;" parent="WIyWlLk6GJQsqaUBKTNV-1" vertex="1">
                    <mxGeometry x="870" y="170" width="110" height="30" as="geometry"/>
                </mxCell>
                <mxCell id="9TWkfeMFytIOEXwtAVvO-14" style="edgeStyle=none;rounded=0;orthogonalLoop=1;jettySize=auto;html=1;exitX=0;exitY=0.5;exitDx=0;exitDy=0;entryX=1;entryY=0.5;entryDx=0;entryDy=0;dashed=1;endArrow=none;endFill=0;fillColor=#fff2cc;strokeColor=#d6b656;" parent="WIyWlLk6GJQsqaUBKTNV-1" source="9TWkfeMFytIOEXwtAVvO-13" target="9TWkfeMFytIOEXwtAVvO-4" edge="1">
                    <mxGeometry relative="1" as="geometry"/>
                </mxCell>
                <mxCell id="9TWkfeMFytIOEXwtAVvO-13" value="if True designates this Port to Participants,&lt;br&gt;if False other uses are allowed&lt;br&gt;if Switchs purpose is 0 (core) value&lt;br&gt;is forced to False&lt;br&gt;if Switch purpose is 1 (participants)&lt;br&gt;value is forced to True&lt;br&gt;regardless of Switch purpose,&lt;br&gt;if switchlink is True it's forced to False" style="rounded=0;whiteSpace=wrap;html=1;autosize=1;fillColor=#fff2cc;strokeColor=#d6b656;dashed=1;align=left;verticalAlign=middle;horizontal=1;labelPosition=center;verticalLabelPosition=middle;" parent="WIyWlLk6GJQsqaUBKTNV-1" vertex="1">
                    <mxGeometry x="870" y="215" width="240" height="120" as="geometry"/>
                </mxCell>
                <mxCell id="9TWkfeMFytIOEXwtAVvO-16" style="edgeStyle=none;rounded=0;orthogonalLoop=1;jettySize=auto;html=1;exitX=0;exitY=0.5;exitDx=0;exitDy=0;entryX=1;entryY=0.5;entryDx=0;entryDy=0;dashed=1;endArrow=none;endFill=0;fillColor=#fff2cc;strokeColor=#d6b656;" parent="WIyWlLk6GJQsqaUBKTNV-1" source="9TWkfeMFytIOEXwtAVvO-15" target="9TWkfeMFytIOEXwtAVvO-5" edge="1">
                    <mxGeometry relative="1" as="geometry"/>
                </mxCell>
                <mxCell id="9TWkfeMFytIOEXwtAVvO-15" value="reflects the currently configured&lt;br&gt;VLANs on this Port" style="rounded=0;whiteSpace=wrap;html=1;autosize=1;fillColor=#fff2cc;strokeColor=#d6b656;dashed=1;align=left;verticalAlign=middle;horizontal=1;labelPosition=center;verticalLabelPosition=middle;" parent="WIyWlLk6GJQsqaUBKTNV-1" vertex="1">
                    <mxGeometry x="870" y="430" width="180" height="30" as="geometry"/>
                </mxCell>
                <mxCell id="9TWkfeMFytIOEXwtAVvO-23" style="rounded=0;orthogonalLoop=1;jettySize=auto;html=1;exitX=0;exitY=0.5;exitDx=0;exitDy=0;entryX=1;entryY=0.5;entryDx=0;entryDy=0;endArrow=none;endFill=0;dashed=1;fillColor=#fff2cc;strokeColor=#d6b656;" parent="WIyWlLk6GJQsqaUBKTNV-1" source="9TWkfeMFytIOEXwtAVvO-22" target="9TWkfeMFytIOEXwtAVvO-19" edge="1">
                    <mxGeometry relative="1" as="geometry"/>
                </mxCell>
                <mxCell id="9TWkfeMFytIOEXwtAVvO-22" value="reflects the currently&lt;br&gt;configured VLANs&lt;br&gt;on this Switch" style="rounded=0;whiteSpace=wrap;html=1;autosize=1;fillColor=#fff2cc;strokeColor=#d6b656;dashed=1;align=left;verticalAlign=middle;horizontal=1;labelPosition=center;verticalLabelPosition=middle;" parent="WIyWlLk6GJQsqaUBKTNV-1" vertex="1">
                    <mxGeometry x="460" y="780" width="120" height="50" as="geometry"/>
                </mxCell>
                <mxCell id="9TWkfeMFytIOEXwtAVvO-21" style="edgeStyle=orthogonalEdgeStyle;rounded=0;orthogonalLoop=1;jettySize=auto;html=1;endArrow=classic;endFill=1;" parent="WIyWlLk6GJQsqaUBKTNV-1" source="gVJZ379J9d6tVCcwHyOa-0" target="9TWkfeMFytIOEXwtAVvO-19" edge="1">
                    <mxGeometry relative="1" as="geometry"/>
                </mxCell>
                <mxCell id="39nEtI6EG8Rg9S1Oo0Wg-6" style="rounded=0;orthogonalLoop=1;jettySize=auto;html=1;exitX=1;exitY=0.5;exitDx=0;exitDy=0;entryX=0;entryY=0.5;entryDx=0;entryDy=0;dashed=1;endArrow=none;endFill=0;fillColor=#ffe6cc;strokeColor=#d79b00;" parent="WIyWlLk6GJQsqaUBKTNV-1" source="39nEtI6EG8Rg9S1Oo0Wg-5" target="9TWkfeMFytIOEXwtAVvO-3" edge="1">
                    <mxGeometry relative="1" as="geometry"/>
                </mxCell>
                <mxCell id="39nEtI6EG8Rg9S1Oo0Wg-5" value="gets auto deleted&lt;br&gt;on Switch delete" style="rounded=0;whiteSpace=wrap;html=1;autosize=1;fillColor=#ffe6cc;strokeColor=#d79b00;dashed=1;align=left;verticalAlign=middle;horizontal=1;labelPosition=center;verticalLabelPosition=middle;" parent="WIyWlLk6GJQsqaUBKTNV-1" vertex="1">
                    <mxGeometry x="300" y="132" width="110" height="30" as="geometry"/>
                </mxCell>
                <mxCell id="RZAyFphviqJKP00rcRwM-1" style="rounded=0;orthogonalLoop=1;jettySize=auto;html=1;exitX=0;exitY=0.5;exitDx=0;exitDy=0;entryX=1;entryY=0.5;entryDx=0;entryDy=0;dashed=1;endArrow=none;endFill=0;fillColor=#fff2cc;strokeColor=#d6b656;" parent="WIyWlLk6GJQsqaUBKTNV-1" source="RZAyFphviqJKP00rcRwM-0" target="9TWkfeMFytIOEXwtAVvO-2" edge="1">
                    <mxGeometry relative="1" as="geometry"/>
                </mxCell>
                <mxCell id="RZAyFphviqJKP00rcRwM-0" value="needs to be&lt;br&gt;positive or 0" style="rounded=0;whiteSpace=wrap;html=1;autosize=1;fillColor=#fff2cc;strokeColor=#d6b656;dashed=1;align=left;verticalAlign=middle;horizontal=1;labelPosition=center;verticalLabelPosition=middle;" parent="WIyWlLk6GJQsqaUBKTNV-1" vertex="1">
                    <mxGeometry x="870" y="132" width="80" height="30" as="geometry"/>
                </mxCell>
                <mxCell id="jtqVzkHbTeXqYUjVCnKF-2" style="rounded=0;orthogonalLoop=1;jettySize=auto;html=1;exitX=0;exitY=0.5;exitDx=0;exitDy=0;entryX=1;entryY=0.5;entryDx=0;entryDy=0;endArrow=none;endFill=0;dashed=1;fillColor=#fff2cc;strokeColor=#d6b656;" parent="WIyWlLk6GJQsqaUBKTNV-1" source="jtqVzkHbTeXqYUjVCnKF-1" target="jtqVzkHbTeXqYUjVCnKF-0" edge="1">
                    <mxGeometry relative="1" as="geometry"/>
                </mxCell>
                <mxCell id="jtqVzkHbTeXqYUjVCnKF-1" value="if True this Port is a link between two Switches&lt;br&gt;if False it's an &quot;usual&quot; Port" style="rounded=0;whiteSpace=wrap;html=1;autosize=1;fillColor=#fff2cc;strokeColor=#d6b656;dashed=1;align=left;verticalAlign=middle;horizontal=1;labelPosition=center;verticalLabelPosition=middle;" parent="WIyWlLk6GJQsqaUBKTNV-1" vertex="1">
                    <mxGeometry x="870" y="350" width="260" height="30" as="geometry"/>
                </mxCell>
                <mxCell id="pK78TpodK3IWdm9WEKsF-2" style="rounded=0;orthogonalLoop=1;jettySize=auto;html=1;exitX=0;exitY=0.5;exitDx=0;exitDy=0;entryX=1;entryY=0.5;entryDx=0;entryDy=0;endArrow=none;endFill=0;dashed=1;fillColor=#fff2cc;strokeColor=#d6b656;" parent="WIyWlLk6GJQsqaUBKTNV-1" source="pK78TpodK3IWdm9WEKsF-1" target="pK78TpodK3IWdm9WEKsF-0" edge="1">
                    <mxGeometry relative="1" as="geometry"/>
                </mxCell>
                <mxCell id="pK78TpodK3IWdm9WEKsF-1" value="Returns the Port LPOS is&lt;br&gt;connected to" style="rounded=0;whiteSpace=wrap;html=1;autosize=1;fillColor=#fff2cc;strokeColor=#d6b656;dashed=1;align=left;verticalAlign=middle;horizontal=1;labelPosition=center;verticalLabelPosition=middle;" parent="WIyWlLk6GJQsqaUBKTNV-1" vertex="1">
                    <mxGeometry x="870" y="390" width="150" height="30" as="geometry"/>
                </mxCell>
                <mxCell id="pWaiSDQYKXrZyxfFB7lp-2" style="rounded=0;orthogonalLoop=1;jettySize=auto;html=1;exitX=1;exitY=0.5;exitDx=0;exitDy=0;entryX=0;entryY=0.5;entryDx=0;entryDy=0;dashed=1;fillColor=#fff2cc;strokeColor=#d6b656;endArrow=none;endFill=0;" parent="WIyWlLk6GJQsqaUBKTNV-1" source="pWaiSDQYKXrZyxfFB7lp-1" target="pWaiSDQYKXrZyxfFB7lp-0" edge="1">
                    <mxGeometry relative="1" as="geometry"/>
                </mxCell>
                <mxCell id="pWaiSDQYKXrZyxfFB7lp-1" value="defines to which Port this Port&lt;br&gt;is linked if it is a switchlink&lt;br&gt;if switchlink is False, this value&lt;br&gt;is forced to be None" style="rounded=0;whiteSpace=wrap;html=1;autosize=1;fillColor=#fff2cc;strokeColor=#d6b656;dashed=1;align=left;verticalAlign=middle;horizontal=1;labelPosition=center;verticalLabelPosition=middle;" parent="WIyWlLk6GJQsqaUBKTNV-1" vertex="1">
                    <mxGeometry x="290" y="190" width="180" height="60" as="geometry"/>
                </mxCell>
                <mxCell id="CZQMxz513B2xW0pSG4-m-2" style="rounded=0;orthogonalLoop=1;jettySize=auto;html=1;exitX=1;exitY=0.5;exitDx=0;exitDy=0;dashed=1;endArrow=none;endFill=0;fillColor=#fff2cc;strokeColor=#d6b656;entryX=0;entryY=0.5;entryDx=0;entryDy=0;" parent="WIyWlLk6GJQsqaUBKTNV-1" source="CZQMxz513B2xW0pSG4-m-1" target="CZQMxz513B2xW0pSG4-m-0" edge="1">
                    <mxGeometry relative="1" as="geometry"/>
                </mxCell>
                <mxCell id="CZQMxz513B2xW0pSG4-m-1" value="if set to True, all commit-stages&lt;br&gt;are skipped for this Port,&lt;br&gt;except isolation" style="rounded=0;whiteSpace=wrap;html=1;autosize=1;fillColor=#fff2cc;strokeColor=#d6b656;dashed=1;align=left;verticalAlign=middle;horizontal=1;labelPosition=center;verticalLabelPosition=middle;" parent="WIyWlLk6GJQsqaUBKTNV-1" vertex="1">
                    <mxGeometry x="290" y="280" width="180" height="50" as="geometry"/>
                </mxCell>
                <mxCell id="XcCMjglspVvn5nmTnYer-2" style="rounded=0;orthogonalLoop=1;jettySize=auto;html=1;exitX=0;exitY=0.5;exitDx=0;exitDy=0;entryX=1;entryY=0.5;entryDx=0;entryDy=0;dashed=1;endArrow=none;endFill=0;fillColor=#fff2cc;strokeColor=#d6b656;" parent="WIyWlLk6GJQsqaUBKTNV-1" source="XcCMjglspVvn5nmTnYer-1" target="XcCMjglspVvn5nmTnYer-0" edge="1">
                    <mxGeometry relative="1" as="geometry"/>
                </mxCell>
                <mxCell id="XcCMjglspVvn5nmTnYer-1" value="if set to True (defines IP of LPOS in play VLAN)&lt;br&gt;range_start and range_end need to be equal&lt;br&gt;purpose of VLAN needs to be 0 (play)" style="rounded=0;whiteSpace=wrap;html=1;autosize=1;fillColor=#fff2cc;strokeColor=#d6b656;dashed=1;align=left;verticalAlign=middle;horizontal=1;labelPosition=center;verticalLabelPosition=middle;" parent="WIyWlLk6GJQsqaUBKTNV-1" vertex="1">
                    <mxGeometry x="860" y="1282" width="270" height="50" as="geometry"/>
                </mxCell>
                <mxCell id="XcCMjglspVvn5nmTnYer-4" style="edgeStyle=none;rounded=0;orthogonalLoop=1;jettySize=auto;html=1;exitX=0;exitY=0.5;exitDx=0;exitDy=0;entryX=1;entryY=0.5;entryDx=0;entryDy=0;dashed=1;endArrow=none;endFill=0;fillColor=#fff2cc;strokeColor=#d6b656;" parent="WIyWlLk6GJQsqaUBKTNV-1" source="XcCMjglspVvn5nmTnYer-3" target="XcCMjglspVvn5nmTnYer-0" edge="1">
                    <mxGeometry relative="1" as="geometry"/>
                </mxCell>
                <mxCell id="XcCMjglspVvn5nmTnYer-3" value="only one IpPool can have this set to True" style="rounded=0;whiteSpace=wrap;html=1;autosize=1;fillColor=#fff2cc;strokeColor=#d6b656;dashed=1;align=left;verticalAlign=middle;horizontal=1;labelPosition=center;verticalLabelPosition=middle;" parent="WIyWlLk6GJQsqaUBKTNV-1" vertex="1">
                    <mxGeometry x="860" y="1256" width="230" height="20" as="geometry"/>
                </mxCell>
                <mxCell id="4" style="edgeStyle=none;html=1;exitX=1;exitY=0.5;exitDx=0;exitDy=0;entryX=0;entryY=0.5;entryDx=0;entryDy=0;endArrow=none;endFill=0;dashed=1;fillColor=#fff2cc;strokeColor=#d6b656;" parent="WIyWlLk6GJQsqaUBKTNV-1" source="3" target="2" edge="1">
                    <mxGeometry relative="1" as="geometry"/>
                </mxCell>
                <mxCell id="3" value="needs to be&lt;br&gt;positive or 0" style="rounded=0;whiteSpace=wrap;html=1;autosize=1;fillColor=#fff2cc;strokeColor=#d6b656;dashed=1;align=left;verticalAlign=middle;horizontal=1;labelPosition=center;verticalLabelPosition=middle;" parent="WIyWlLk6GJQsqaUBKTNV-1" vertex="1">
                    <mxGeometry x="-70" y="1144.5" width="90" height="40" as="geometry"/>
                </mxCell>
                <mxCell id="7" style="edgeStyle=none;html=1;exitX=1;exitY=0.5;exitDx=0;exitDy=0;entryX=0;entryY=0.5;entryDx=0;entryDy=0;endArrow=none;endFill=0;dashed=1;fillColor=#fff2cc;strokeColor=#d6b656;" parent="WIyWlLk6GJQsqaUBKTNV-1" source="6" target="5" edge="1">
                    <mxGeometry relative="1" as="geometry"/>
                </mxCell>
                <mxCell id="6" value="latest timestamp a divice scan&lt;br&gt;discovered this device" style="rounded=0;whiteSpace=wrap;html=1;autosize=1;fillColor=#fff2cc;strokeColor=#d6b656;dashed=1;align=left;verticalAlign=middle;horizontal=1;labelPosition=center;verticalLabelPosition=middle;" parent="WIyWlLk6GJQsqaUBKTNV-1" vertex="1">
                    <mxGeometry x="-400" y="1550" width="180" height="40" as="geometry"/>
                </mxCell>
                <mxCell id="10" value="PortConfigCache" style="swimlane;fontStyle=1;align=center;verticalAlign=top;childLayout=stackLayout;horizontal=1;startSize=26;horizontalStack=0;resizeParent=1;resizeParentMax=0;resizeLast=0;collapsible=1;marginBottom=0;" parent="WIyWlLk6GJQsqaUBKTNV-1" vertex="1">
                    <mxGeometry x="1170" y="95" width="270" height="372" as="geometry"/>
                </mxCell>
                <mxCell id="11" value="_id : str &amp; unique" style="text;strokeColor=none;fillColor=none;align=left;verticalAlign=top;spacingLeft=4;spacingRight=4;overflow=hidden;rotatable=0;points=[[0,0.5],[1,0.5]];portConstraint=eastwest;" parent="10" vertex="1">
                    <mxGeometry y="26" width="270" height="26" as="geometry"/>
                </mxCell>
                <mxCell id="14" value="port_id : (FK) str &amp; notnone" style="text;strokeColor=none;fillColor=none;align=left;verticalAlign=top;spacingLeft=4;spacingRight=4;overflow=hidden;rotatable=0;points=[[0,0.5],[1,0.5]];portConstraint=eastwest;" parent="10" vertex="1">
                    <mxGeometry y="52" width="270" height="26" as="geometry"/>
                </mxCell>
                <mxCell id="44" value="scope : int &amp; notnone" style="text;strokeColor=none;fillColor=none;align=left;verticalAlign=top;spacingLeft=4;spacingRight=4;overflow=hidden;rotatable=0;points=[[0,0.5],[1,0.5]];portConstraint=eastwest;" parent="10" vertex="1">
                    <mxGeometry y="78" width="270" height="26" as="geometry"/>
                </mxCell>
                <mxCell id="54" value="skip : bool &amp; notnone" style="text;strokeColor=none;fillColor=none;align=left;verticalAlign=top;spacingLeft=4;spacingRight=4;overflow=hidden;rotatable=0;points=[[0,0.5],[1,0.5]];portConstraint=eastwest;" parent="10" vertex="1">
                    <mxGeometry y="104" width="270" height="26" as="geometry"/>
                </mxCell>
                <mxCell id="61" value="isolate : bool &amp; notnone" style="text;strokeColor=none;fillColor=none;align=left;verticalAlign=top;spacingLeft=4;spacingRight=4;overflow=hidden;rotatable=0;points=[[0,0.5],[1,0.5]];portConstraint=eastwest;" parent="10" vertex="1">
                    <mxGeometry y="130" width="270" height="26" as="geometry"/>
                </mxCell>
                <mxCell id="15" value="vlan_ids : (FK) list[str] &amp; notnone" style="text;strokeColor=none;fillColor=none;align=left;verticalAlign=top;spacingLeft=4;spacingRight=4;overflow=hidden;rotatable=0;points=[[0,0.5],[1,0.5]];portConstraint=eastwest;" parent="10" vertex="1">
                    <mxGeometry y="156" width="270" height="26" as="geometry"/>
                </mxCell>
                <mxCell id="16" value="default_vlan_id : (FK) str | None" style="text;strokeColor=none;fillColor=none;align=left;verticalAlign=top;spacingLeft=4;spacingRight=4;overflow=hidden;rotatable=0;points=[[0,0.5],[1,0.5]];portConstraint=eastwest;" parent="10" vertex="1">
                    <mxGeometry y="182" width="270" height="26" as="geometry"/>
                </mxCell>
                <mxCell id="17" value="enabled : bool &amp; notnone" style="text;strokeColor=none;fillColor=none;align=left;verticalAlign=top;spacingLeft=4;spacingRight=4;overflow=hidden;rotatable=0;points=[[0,0.5],[1,0.5]];portConstraint=eastwest;" parent="10" vertex="1">
                    <mxGeometry y="208" width="270" height="26" as="geometry"/>
                </mxCell>
                <mxCell id="18" value="mode : str &amp; notnone" style="text;strokeColor=none;fillColor=none;align=left;verticalAlign=top;spacingLeft=4;spacingRight=4;overflow=hidden;rotatable=0;points=[[0,0.5],[1,0.5]];portConstraint=eastwest;" parent="10" vertex="1">
                    <mxGeometry y="234" width="270" height="26" as="geometry"/>
                </mxCell>
                <mxCell id="19" value="receive : str &amp; notnone" style="text;strokeColor=none;fillColor=none;align=left;verticalAlign=top;spacingLeft=4;spacingRight=4;overflow=hidden;rotatable=0;points=[[0,0.5],[1,0.5]];portConstraint=eastwest;" parent="10" vertex="1">
                    <mxGeometry y="260" width="270" height="26" as="geometry"/>
                </mxCell>
                <mxCell id="20" value="force : bool &amp; notnone" style="text;strokeColor=none;fillColor=none;align=left;verticalAlign=top;spacingLeft=4;spacingRight=4;overflow=hidden;rotatable=0;points=[[0,0.5],[1,0.5]];portConstraint=eastwest;" parent="10" vertex="1">
                    <mxGeometry y="286" width="270" height="26" as="geometry"/>
                </mxCell>
                <mxCell id="22" value="" style="line;strokeWidth=1;fillColor=none;align=left;verticalAlign=middle;spacingTop=-1;spacingLeft=3;spacingRight=3;rotatable=0;labelPosition=right;points=[];portConstraint=eastwest;" parent="10" vertex="1">
                    <mxGeometry y="312" width="270" height="8" as="geometry"/>
                </mxCell>
                <mxCell id="23" value="get_by_port(port_id, scope) : PortConfigCache" style="text;align=left;verticalAlign=top;spacingLeft=4;spacingRight=4;overflow=hidden;rotatable=0;points=[[0,0.5],[1,0.5]];portConstraint=eastwest;" parent="10" vertex="1">
                    <mxGeometry y="320" width="270" height="26" as="geometry"/>
                </mxCell>
                <mxCell id="35" value="delete_by_port(port_id) : None" style="text;align=left;verticalAlign=top;spacingLeft=4;spacingRight=4;overflow=hidden;rotatable=0;points=[[0,0.5],[1,0.5]];portConstraint=eastwest;" parent="10" vertex="1">
                    <mxGeometry y="346" width="270" height="26" as="geometry"/>
                </mxCell>
                <mxCell id="34" style="edgeStyle=orthogonalEdgeStyle;rounded=0;html=1;exitX=0.5;exitY=0;exitDx=0;exitDy=0;" parent="WIyWlLk6GJQsqaUBKTNV-1" source="9TWkfeMFytIOEXwtAVvO-0" target="14" edge="1">
                    <mxGeometry relative="1" as="geometry"/>
                </mxCell>
                <mxCell id="36" style="edgeStyle=orthogonalEdgeStyle;rounded=0;html=1;" parent="WIyWlLk6GJQsqaUBKTNV-1" source="gVJZ379J9d6tVCcwHyOa-0" target="15" edge="1">
                    <mxGeometry relative="1" as="geometry"/>
                </mxCell>
                <mxCell id="46" style="rounded=0;html=1;exitX=0;exitY=0.5;exitDx=0;exitDy=0;endArrow=none;endFill=0;dashed=1;fillColor=#fff2cc;strokeColor=#d6b656;entryX=1;entryY=0.5;entryDx=0;entryDy=0;" parent="WIyWlLk6GJQsqaUBKTNV-1" source="45" target="44" edge="1">
                    <mxGeometry relative="1" as="geometry"/>
                </mxCell>
                <mxCell id="45" value="0: commit&lt;br&gt;1: retreat" style="rounded=0;whiteSpace=wrap;html=1;autosize=1;fillColor=#fff2cc;strokeColor=#d6b656;dashed=1;align=left;verticalAlign=middle;horizontal=1;labelPosition=center;verticalLabelPosition=middle;flipV=0;" parent="WIyWlLk6GJQsqaUBKTNV-1" vertex="1">
                    <mxGeometry x="1510" y="97" width="80" height="40" as="geometry"/>
                </mxCell>
                <mxCell id="49" style="edgeStyle=none;rounded=0;html=1;exitX=0.5;exitY=1;exitDx=0;exitDy=0;dashed=1;endArrow=none;endFill=0;fillColor=#fff2cc;strokeColor=#d6b656;" parent="WIyWlLk6GJQsqaUBKTNV-1" source="48" target="10" edge="1">
                    <mxGeometry relative="1" as="geometry"/>
                </mxCell>
                <mxCell id="48" value="Calcuates and holds definitive Port-Configuration,&lt;br&gt;that should be applied during next commit/retreat.&lt;br&gt;Is build by evaluation Auto/Port- and Device-Configuration" style="rounded=0;whiteSpace=wrap;html=1;autosize=1;fillColor=#fff2cc;strokeColor=#d6b656;dashed=1;align=center;verticalAlign=middle;horizontal=1;labelPosition=center;verticalLabelPosition=middle;" parent="WIyWlLk6GJQsqaUBKTNV-1" vertex="1">
                    <mxGeometry x="1140" y="10" width="330" height="60" as="geometry"/>
                </mxCell>
                <mxCell id="51" style="edgeStyle=none;rounded=0;html=1;exitX=0;exitY=0.5;exitDx=0;exitDy=0;entryX=1;entryY=0.5;entryDx=0;entryDy=0;dashed=1;endArrow=none;endFill=0;fillColor=#fff2cc;strokeColor=#d6b656;" parent="WIyWlLk6GJQsqaUBKTNV-1" source="50" target="23" edge="1">
                    <mxGeometry relative="1" as="geometry"/>
                </mxCell>
                <mxCell id="50" value="Always returns an element.&lt;br&gt;If the requested one is not in cache,&lt;br&gt;it's first generated and than returned" style="rounded=0;whiteSpace=wrap;html=1;autosize=1;fillColor=#fff2cc;strokeColor=#d6b656;dashed=1;align=left;verticalAlign=middle;horizontal=1;labelPosition=center;verticalLabelPosition=middle;flipV=0;" parent="WIyWlLk6GJQsqaUBKTNV-1" vertex="1">
                    <mxGeometry x="1510" y="400" width="220" height="60" as="geometry"/>
                </mxCell>
                <mxCell id="53" style="edgeStyle=none;html=1;exitX=1;exitY=0.5;exitDx=0;exitDy=0;entryX=0;entryY=0.5;entryDx=0;entryDy=0;endArrow=none;endFill=0;dashed=1;fillColor=#ffe6cc;strokeColor=#d79b00;" parent="WIyWlLk6GJQsqaUBKTNV-1" source="52" target="14" edge="1">
                    <mxGeometry relative="1" as="geometry"/>
                </mxCell>
                <mxCell id="52" value="gets auto deleted&lt;br&gt;on Port delete" style="rounded=0;whiteSpace=wrap;html=1;autosize=1;fillColor=#ffe6cc;strokeColor=#d79b00;dashed=1;align=left;verticalAlign=middle;horizontal=1;labelPosition=center;verticalLabelPosition=middle;" parent="WIyWlLk6GJQsqaUBKTNV-1" vertex="1">
                    <mxGeometry x="1010" y="97" width="120" height="40" as="geometry"/>
                </mxCell>
                <mxCell id="56" style="edgeStyle=none;html=1;exitX=0;exitY=0.5;exitDx=0;exitDy=0;entryX=1;entryY=0.5;entryDx=0;entryDy=0;dashed=1;endArrow=none;endFill=0;fillColor=#fff2cc;strokeColor=#d6b656;" parent="WIyWlLk6GJQsqaUBKTNV-1" source="55" target="54" edge="1">
                    <mxGeometry relative="1" as="geometry"/>
                </mxCell>
                <mxCell id="55" value="if set to True:&lt;br&gt;&amp;nbsp;- the Port is not touched in this scope (result of _disabled on Port level)" style="rounded=0;whiteSpace=wrap;html=1;autosize=1;fillColor=#fff2cc;strokeColor=#d6b656;dashed=1;align=left;verticalAlign=middle;horizontal=1;labelPosition=center;verticalLabelPosition=middle;" parent="WIyWlLk6GJQsqaUBKTNV-1" vertex="1">
                    <mxGeometry x="1510" y="160" width="400" height="40" as="geometry"/>
                </mxCell>
                <mxCell id="58" style="edgeStyle=none;html=1;exitX=0;exitY=0.5;exitDx=0;exitDy=0;entryX=1;entryY=0.5;entryDx=0;entryDy=0;dashed=1;endArrow=none;endFill=0;fillColor=#fff2cc;strokeColor=#d6b656;" parent="WIyWlLk6GJQsqaUBKTNV-1" source="57" target="18" edge="1">
                    <mxGeometry relative="1" as="geometry"/>
                </mxCell>
                <mxCell id="57" value="disabled&lt;br&gt;optional&lt;br&gt;enabled&lt;br&gt;strict" style="rounded=0;whiteSpace=wrap;html=1;autosize=1;fillColor=#fff2cc;strokeColor=#d6b656;dashed=1;align=left;verticalAlign=middle;horizontal=1;labelPosition=center;verticalLabelPosition=middle;flipV=0;" parent="WIyWlLk6GJQsqaUBKTNV-1" vertex="1">
                    <mxGeometry x="1510" y="224" width="70" height="70" as="geometry"/>
                </mxCell>
                <mxCell id="60" style="edgeStyle=none;html=1;exitX=0;exitY=0.5;exitDx=0;exitDy=0;entryX=1;entryY=0.5;entryDx=0;entryDy=0;dashed=1;endArrow=none;endFill=0;fillColor=#fff2cc;strokeColor=#d6b656;" parent="WIyWlLk6GJQsqaUBKTNV-1" source="59" target="19" edge="1">
                    <mxGeometry relative="1" as="geometry"/>
                </mxCell>
                <mxCell id="59" value="any&lt;br&gt;only tagged&lt;br&gt;only untagged" style="rounded=0;whiteSpace=wrap;html=1;autosize=1;fillColor=#fff2cc;strokeColor=#d6b656;dashed=1;align=left;verticalAlign=middle;horizontal=1;labelPosition=center;verticalLabelPosition=middle;flipV=0;" parent="WIyWlLk6GJQsqaUBKTNV-1" vertex="1">
                    <mxGeometry x="1510" y="317" width="100" height="60" as="geometry"/>
                </mxCell>
                <mxCell id="63" style="edgeStyle=none;html=1;exitX=0.5;exitY=0;exitDx=0;exitDy=0;endArrow=none;endFill=0;dashed=1;fillColor=#ffe6cc;strokeColor=#d79b00;" edge="1" parent="WIyWlLk6GJQsqaUBKTNV-1" source="62" target="10">
                    <mxGeometry relative="1" as="geometry"/>
                </mxCell>
                <mxCell id="62" value="gets deleted on:&lt;br&gt;&amp;nbsp;- corresponding Port.save()&lt;br&gt;&amp;nbsp;- corresponding Switch.save()&lt;br&gt;&amp;nbsp;- any VLAN.save()&lt;br&gt;&amp;nbsp;- any VLAN.delete()&lt;br&gt;&amp;nbsp;- related Device.save()&lt;br&gt;&amp;nbsp;- related Device.delete()" style="rounded=0;whiteSpace=wrap;html=1;autosize=1;fillColor=#ffe6cc;strokeColor=#d79b00;dashed=1;align=left;verticalAlign=middle;horizontal=1;labelPosition=center;verticalLabelPosition=middle;" vertex="1" parent="WIyWlLk6GJQsqaUBKTNV-1">
                    <mxGeometry x="1210" y="485" width="190" height="110" as="geometry"/>
                </mxCell>
            </root>
        </mxGraphModel>
    </diagram>
</mxfile>
